<svg width="44" height="44" viewBox="0 0 44 44" fill="none" xmlns="http://www.w3.org/2000/svg">
<path d="M19.0563 24.8124C19.9322 24.243 20.9545 23.9399 21.9993 23.9399C23.044 23.9399 24.0663 24.243 24.9423 24.8124L38.9373 33.9096C39.3591 34.1838 39.681 34.5871 39.855 35.0592C40.029 35.5313 40.0458 36.047 39.9028 36.5294C39.7598 37.0118 39.4647 37.4351 39.0615 37.7361C38.6584 38.0372 38.1687 38.1998 37.6656 38.1999H6.33296C5.8298 38.1998 5.34014 38.0372 4.93697 37.7361C4.5338 37.4351 4.23873 37.0118 4.09574 36.5294C3.95274 36.047 3.96949 35.5313 4.14349 35.0592C4.31748 34.5871 4.6394 34.1838 5.06126 33.9096L19.0563 24.8133V24.8124Z" stroke="#80AAFF" strokeWidth="3.6" strokeLinecap="round" strokeLinejoin="round"/>
<path d="M21.9996 22.8997C21.9996 22.8997 27.3996 15.0823 27.3996 12.0997C27.3996 10.6675 26.8307 9.29403 25.818 8.28133C24.8053 7.26863 23.4318 6.69971 21.9996 6.69971C20.5674 6.69971 19.1939 7.26863 18.1812 8.28133C17.1685 9.29403 16.5996 10.6675 16.5996 12.0997" stroke="#80AAFF" strokeWidth="3.6" strokeLinecap="round" strokeLinejoin="round"/>
</svg>
