<svg width="85" height="70" viewBox="0 0 85 70" fill="none" xmlns="http://www.w3.org/2000/svg">
<path d="M83.0623 30.218C81.9679 25.6465 79.925 21.3676 77.3713 17.491C75.4378 14.8213 73.4679 12.1881 71.279 9.73783C69.4915 7.90925 67.2662 6.70238 65.1868 5.27608C63.8005 4.28865 62.3048 3.59378 60.7726 2.89892C58.4743 1.83834 56.1031 0.850909 53.6589 0.338906C51.0687 -0.173098 48.4421 -0.0268114 43.2619 0.265762C40.9271 0.412049 38.9936 0.594907 37.6803 0.741194C36.7683 0.88748 35.8928 1.03377 34.9808 1.21663C34.3971 1.28977 33.4486 1.5092 32.2812 1.87492C30.5301 2.46006 25.0215 3.22807 17.9808 16.7962C16.8498 18.9539 15.3541 20.8556 13.749 22.6476C12.1438 24.4762 10.6117 26.3414 8.8241 27.9505C6.01509 30.6203 2.80479 33.1803 1.41852 37.0203C-0.405513 41.2626 -0.843281 47.0044 2.36702 50.625C4.04513 52.5633 6.34341 53.697 8.53226 54.8307C10.1739 55.8547 11.8885 56.769 13.676 57.3907C15.573 58.1222 17.9078 58.8902 19.9507 59.585C21.6653 60.2799 22.9786 61.7428 23.6353 63.5348C24.2554 65.1439 24.9486 66.8262 25.0215 68.5817C41.2554 69.2765 57.5258 69.8982 73.7597 68.6914C74.0151 68.216 74.2704 67.7039 74.4893 67.2285C74.7447 66.6434 75.0365 66.0216 75.2554 65.4365C75.2919 65.2536 75.3284 65.0708 75.3649 64.8879C75.4378 64.4491 75.4743 64.0102 75.5108 63.5714C75.5473 62.5839 75.6202 61.5965 75.5837 60.609C75.5837 60.5725 75.5837 60.5359 75.5837 60.4993C75.4743 59.2559 75.3284 58.0125 75.1095 56.8056C74.8906 55.7816 74.6717 54.721 74.1245 53.8067L74.088 53.7701C75.8026 53.4044 77.4443 52.7827 78.867 51.905C81.5301 49.9667 84.0473 47.1872 84.485 43.6763C84.9958 39.178 84.2297 34.57 83.0623 30.218Z" fill="#FFE3A3"/>
<path d="M10.0281 40.8601C9.40793 40.787 8.86072 40.531 8.24055 40.4213C7.7663 40.3116 7.29205 40.2384 6.89076 39.9093C5.32209 38.3001 6.48948 36.6178 8.24055 35.9961C10.1375 35.5207 13.7856 35.2281 13.6397 38.1904C13.6397 40.019 11.6333 41.2624 10.0281 40.8601Z" fill="#3B4046"/>
<path d="M21.3738 19.7584C21.3009 19.7218 21.2279 19.6487 21.1549 19.6121C20.8996 19.4658 20.5348 19.4658 20.3888 19.1733C17.0326 18.4784 15.8288 23.9276 19.5498 24.1104C19.6957 24.1104 19.8781 24.147 20.024 24.1104C18.7837 23.123 19.0391 20.819 20.5712 20.0144C20.8266 19.9047 21.1185 19.795 21.3738 19.7584ZM20.7901 18.3687C22.8695 18.1858 24.4017 20.6361 23.6721 22.611C23.1249 24.5859 21.082 25.5002 19.2215 25.3173C16.23 24.8419 15.7558 20.8555 17.8717 18.9904C18.7107 18.4418 19.8416 17.9664 20.7901 18.3687Z" fill="#3B4046"/>
<path d="M40.8904 23.0498C40.8904 23.0498 40.8539 23.0498 40.8904 23.0498C40.3431 22.6475 39.723 22.5743 39.1028 22.5743C38.9204 22.6109 38.7015 22.5743 38.5556 22.3915C36.3667 23.5252 36.0019 27.7309 38.9934 27.8041C39.5041 27.8772 39.9783 27.7675 40.3796 27.5115C38.3367 26.5241 38.811 23.4886 40.8904 23.0498ZM42.7873 23.4155C43.5534 25.9389 42.0213 29.779 38.9934 28.9012C35.2723 28.4258 35.5277 23.1595 38.5556 21.8429C38.9569 21.404 39.5406 21.404 40.0878 21.4772C41.2187 21.5138 42.2401 22.3549 42.7873 23.4155Z" fill="#3B4046"/>
<path d="M21.1908 19.612C21.2637 19.6486 21.3367 19.6852 21.4096 19.7583C21.1178 19.8314 20.8624 19.9412 20.6071 20.0874C19.0749 20.8555 18.8195 23.196 20.0599 24.1835C19.9139 24.1835 19.7315 24.1835 19.5856 24.1835C15.8646 24.0006 17.0684 18.5149 20.4247 19.2463C20.5706 19.4657 20.9354 19.4657 21.1908 19.612Z" fill="white"/>
<path d="M40.8541 23.0499C40.8541 23.0499 40.8906 23.0499 40.8541 23.0499C38.7747 23.4888 38.337 26.5243 40.3799 27.5483C39.9786 27.7677 39.5043 27.8774 38.9936 27.8408C36.0022 27.7677 36.367 23.5619 38.5558 22.4282C38.6653 22.6111 38.8842 22.6477 39.1031 22.6111C39.6867 22.5745 40.3434 22.6477 40.8541 23.0499Z" fill="white"/>
<path d="M8.49546 54.5383C8.16713 53.9897 7.8388 53.4045 7.58344 52.7828C7.21863 51.6857 7.18215 50.4788 7.03623 49.3085C6.85382 47.2239 6.81734 45.1393 7.14567 43.0548C7.36455 41.7747 7.43752 40.4216 8.13065 39.3244C8.27657 39.105 8.56842 39.0319 8.7873 39.1782C9.18859 39.4707 8.93322 39.8364 8.75082 40.2022C7.61992 43.8959 7.94824 47.8822 8.7873 51.5394C8.9697 52.344 9.48043 53.0388 9.77228 53.8068C10.1736 54.6845 8.9697 55.3428 8.49546 54.5383Z" fill="#3B4046"/>
<path d="M75.9853 53.4775C75.2192 53.4409 74.4895 53.4043 73.7235 53.3312C71.8629 53.4409 70.0389 53.2215 68.2149 53.0386C66.6462 52.8923 65.0775 52.8192 63.5818 52.3803C53.805 48.7597 57.7449 35.5208 58.1462 27.3653C58.1827 25.171 58.438 22.9035 57.7814 20.8189C57.4166 19.6121 56.8329 18.4418 56.2492 17.3081C56.1762 17.1618 56.1033 17.0155 55.9938 16.9423C55.7385 16.8326 55.4831 17.0155 55.5196 17.3081C55.9209 18.5881 56.4316 19.8315 56.687 21.1481C56.9788 22.611 56.7964 24.0738 56.7599 25.5367C56.6505 27.6213 56.4316 29.8521 56.1762 32.0099C54.9359 40.6774 53.2943 51.7952 63.6913 54.6477C66.3544 55.1232 69.0539 54.794 71.717 54.538C72.8844 54.538 74.0883 54.4649 75.2556 54.3552C75.3651 53.9529 75.6204 53.6603 75.9853 53.4775Z" fill="white"/>
<path d="M25.4228 61.5966C24.4013 61.5235 23.3434 61.3772 22.3219 61.1577C22.2854 61.1212 22.2125 61.0846 22.176 61.0846C22.176 61.048 22.1395 61.0115 22.103 60.9749C21.9936 60.8652 21.8477 60.792 21.7017 60.7189C21.5923 60.6457 21.4829 60.5726 21.3734 60.536C21.2275 60.4629 21.0816 60.3532 20.9356 60.28C20.7897 60.2069 20.6803 60.1337 20.5344 60.0606C20.4614 60.024 20.4249 59.9875 20.352 59.9509C20.1331 59.8412 19.9507 59.768 19.7318 59.6583C19.5494 59.5852 19.367 59.512 19.2211 59.4389C19.2211 59.4389 19.1846 59.4389 19.1846 59.4023C20.279 59.4389 21.4099 59.5852 22.5043 59.768C25.0944 60.0972 27.7211 60.3532 30.3477 60.28C33.1567 60.28 35.7103 59.6217 38.4464 59.1097C39.0301 59.0732 39.8691 58.3783 40.2704 59.1097C40.7811 60.28 36.6223 61.0115 35.8562 61.1943C33.3391 61.7429 30.7854 61.9623 28.2318 61.8526C27.2833 61.7795 26.3348 61.7063 25.4228 61.5966Z" fill="white"/>
<path d="M17.7989 59.8778C17.7624 59.8412 17.7259 59.8046 17.6895 59.7681C17.7259 59.7681 17.7259 59.7681 17.7624 59.7681C18.0543 59.8778 18.3461 59.9875 18.6015 60.0972C18.6015 60.1338 18.6015 60.1338 18.6015 60.1704C18.3461 60.0606 18.0543 59.9875 17.7989 59.8778Z" fill="white"/>
</svg>
