<svg width="78" height="77" viewBox="0 0 78 77" fill="none" xmlns="http://www.w3.org/2000/svg">
<path d="M77.8524 66.0034C77.8159 65.6377 77.8159 65.272 77.7795 64.8697C77.67 62.0537 77.3417 59.2742 77.0863 56.4948C76.9039 52.2159 76.3567 48.1564 75.8095 43.8776C75.5176 40.769 75.1164 37.6604 74.6056 34.5518C74.6056 34.4786 74.5691 34.3689 74.5691 34.2958C74.2043 30.4557 73.6936 26.6157 72.8181 22.8488C72.4898 21.386 72.1614 19.85 71.6507 18.4237C71.5777 18.1677 71.4683 17.6922 71.3953 17.4362C71.3589 16.9974 71.1035 16.4854 70.9211 16.1196C70.7752 15.7539 70.5928 15.4248 70.3739 15.0956C70.2644 14.9493 70.1915 14.8031 70.1185 14.6202C68.6228 11.3287 67.0906 8.0373 65.2666 4.9287C65.0112 4.4167 64.6829 3.97784 64.2816 3.61212C64.0992 3.42926 63.9168 3.17326 63.7709 2.95383C62.6035 1.08868 60.1593 0.466958 58.2258 1.49096C57.6056 1.82011 56.9855 2.25897 56.4747 2.62469C54.2859 4.23384 52.4983 6.355 51.0026 8.58587C49.6164 10.451 48.4855 12.5722 46.8438 14.2545C46.6614 14.4739 46.4425 14.6202 46.1872 14.8031C44.4726 15.9368 42.5391 16.8511 40.4962 17.0705C37.5048 17.2899 34.3674 16.9608 31.5219 15.9734C30.464 15.6076 29.5885 14.8762 29.1142 13.8888C28.7129 13.0476 28.4211 12.1333 28.0198 11.3653C27.1078 9.28073 26.3417 7.15958 25.2837 5.14813C24.0069 2.7344 20.7237 -1.80049 17.7687 0.759531C17.4039 0.796103 17.1121 1.12525 16.8567 1.38125C16.0541 2.36869 15.4704 3.50241 14.8867 4.59956C14.1207 6.02585 13.3546 7.48872 12.5885 8.95159C10.6185 12.5356 8.9404 16.3025 7.40821 20.106C4.964 25.6283 2.62924 31.1872 1.35241 37.1118C0.22151 41.6101 -0.435138 46.3644 0.330957 51.009C1.27945 56.7874 5.73009 60.9931 10.2902 64.248C12.2237 65.5646 13.1357 67.7954 13.7194 69.9897C13.8653 70.648 14.0112 71.3429 14.1207 72.0012C14.2666 72.952 14.7408 73.8298 15.4704 74.4515C15.5799 74.5612 15.6893 74.6343 15.7988 74.7075C31.8867 77.4869 48.2301 76.3532 64.4275 76.2801C66.5434 75.6218 68.5863 74.8538 70.5563 73.9029C73.2923 72.5863 75.3352 70.7943 77.0134 68.6731C77.3052 68.3074 77.5606 67.8686 77.67 67.3931V67.3566C77.8524 66.9177 77.8889 66.4789 77.8524 66.0034Z" fill="#C8C8CF"/>
<path d="M18.9726 40.4765C19.155 41.9028 18.6443 43.3291 18.0606 44.6456C16.5649 47.3885 13.0628 48.5954 10.1443 47.6445C8.17436 46.8399 6.78809 44.6822 6.78809 42.5976C6.93401 40.257 8.2838 37.7702 10.5456 36.8925C10.655 36.5267 10.9834 36.2342 11.3847 36.1976C12.8074 36.1244 14.2666 35.8319 15.6894 36.161C17.5499 36.7462 18.7173 38.5382 18.9726 40.4765Z" fill="#EFF5FF"/>
<path d="M17.1121 40.5863C17.8782 43.2926 15.1422 46.0721 12.4061 45.6698C10.5091 45.5235 8.46619 43.768 8.831 41.72C9.12284 40.5132 9.81598 39.3429 10.6915 38.5383C12.8439 36.856 16.3095 38.0994 17.1121 40.5863Z" fill="#2C2C2C"/>
<path d="M53.0454 42.0131C53.6655 44.1343 53.0089 46.6212 51.3672 48.084C49.8351 49.6566 47.6097 50.4246 45.4574 50.0223C40.5325 49.2178 40.0218 44.0246 42.6848 40.5503C43.5239 39.3434 44.7642 38.4657 46.187 38.0634C46.8072 37.844 47.4638 37.6245 48.157 37.7343C50.4552 37.9537 52.6076 39.6726 53.0454 42.0131Z" fill="#EFF5FF"/>
<path d="M51.1848 42.9641C51.5861 45.4875 49.4338 48.1207 46.8436 47.8647C44.5089 47.8281 42.393 45.2681 43.5969 43.0372C43.8887 42.4521 44.29 41.9035 44.7278 41.4646C44.9466 40.9161 45.4209 40.5504 45.9316 40.2578C48.011 39.0143 50.893 40.5869 51.1848 42.9641Z" fill="#2C2C2C"/>
<path d="M32.3974 48.9976C32.215 48.7781 31.8867 48.705 31.6678 48.8513C30.391 49.6193 28.6764 49.0341 27.582 48.193C27.509 48.1564 27.3996 48.0833 27.3266 47.9736C27.5455 47.8638 27.7279 47.7176 27.9103 47.5713C28.7129 47.0593 29.8073 45.7061 28.5305 45.0478C27.8008 44.7553 27.0712 44.865 26.3051 44.7918C25.612 44.8284 24.9189 44.6455 24.2257 44.7552C23.5326 44.9015 23.1678 45.7061 23.5691 46.2913C24.1528 46.9861 24.9189 47.5347 25.685 48.0101C25.0648 48.6684 24.2622 49.0707 23.3137 49.0341C22.8395 48.9976 22.4382 48.9976 21.9639 48.8878C21.6721 48.8147 21.3802 48.6318 21.0519 48.705C20.833 48.7781 20.7601 48.9976 20.833 49.217C21.1249 49.985 22.0734 50.0581 22.803 50.1679C24.1163 50.2776 25.539 49.8387 26.3781 48.8147C27.0347 49.729 28.0197 50.3873 29.1506 50.5701C29.6978 50.6799 30.2815 50.753 30.8652 50.6433C31.5583 50.497 33.0176 49.8753 32.3974 48.9976Z" fill="#2C2C2C"/>
<path d="M15.1048 68.5263C13.2808 67.7949 11.6391 66.588 10.0705 65.308C9.81511 65.052 9.45031 64.9057 9.2679 64.54C9.15846 64.2475 9.45031 63.9549 9.66919 64.0646C11.1284 64.7595 12.5512 65.6738 13.9739 66.4418C15.1413 67.0269 16.4911 67.4658 17.6949 67.8315C18.7894 68.1241 19.8838 68.4532 20.9782 68.7458C21.4525 68.8555 22.255 68.8555 22.0361 69.7698C21.7443 70.6841 21.0147 70.3549 20.5769 70.2086C19.9203 70.0258 19.2636 69.8064 18.607 69.6235C17.4031 69.3309 16.2357 69.0018 15.1048 68.5263Z" fill="white"/>
</svg>
