<svg width="66" height="96" viewBox="0 0 66 96" fill="none" xmlns="http://www.w3.org/2000/svg">
<path d="M13.4688 86.4189C13.4688 86.4189 13.5058 86.4189 13.5058 86.4561C13.5058 86.4189 13.5058 86.4189 13.4688 86.4189Z" fill="#FFC4C4"/>
<path d="M63.9215 80.7139C63.9215 80.7507 63.8848 80.8243 63.8848 80.8611C63.8848 80.8243 63.8848 80.7507 63.9215 80.7139Z" fill="#FFC4C4"/>
<path d="M64.6514 55.1133C64.6514 55.1499 64.6878 55.1499 64.6878 55.1864C64.6878 55.1864 64.6878 55.1499 64.6514 55.1133Z" fill="#FFC4C4"/>
<path d="M65.8188 66.3045C65.7823 64.4393 65.7094 62.5741 65.6364 60.709C65.5635 60.1238 65.454 59.5387 65.3811 58.9901C65.2351 58.0027 65.0892 57.0153 64.9797 56.0278C64.9068 55.7718 64.7974 55.5158 64.7244 55.2598C64.469 54.5284 64.1772 53.8335 63.9583 53.1021C63.7394 52.3706 63.5205 51.6392 63.2652 50.9078C63.0828 50.4323 62.9004 49.9569 62.718 49.4815C62.5356 49.0426 62.3167 48.6403 62.1343 48.238C61.8059 47.6895 61.4411 47.1043 61.0763 46.5923L61.1128 46.6289C61.1128 46.5923 61.0763 46.5923 61.0763 46.5558C61.0763 46.5558 61.0763 46.5557 61.0763 46.5192C61.0763 46.5192 61.0763 46.4826 61.0398 46.4826C61.0398 46.4826 61.0398 46.4826 61.0398 46.5192C60.821 46.19 60.5656 45.8609 60.3832 45.4952C60.2737 45.2757 60.2008 45.0197 60.1278 44.7637C59.763 44.3249 59.3982 43.886 58.9969 43.4472C59.0699 43.3374 59.1793 43.2643 59.2523 43.1912C59.1793 42.8254 59.2523 42.4231 59.4712 42.094C59.4712 42.0574 59.5076 42.0209 59.5076 41.9843C59.69 40.814 59.763 39.6437 59.9454 38.4734C60.1278 37.1934 60.4197 35.9134 60.748 34.6334C61.0398 33.4631 61.2952 32.3294 61.5506 31.1591C61.8424 29.8425 62.1707 28.5625 62.4991 27.2459C62.645 26.6608 62.7544 26.039 62.8639 25.4173C63.1557 23.8447 63.3746 22.2722 63.5935 20.663C63.8124 19.0538 64.0313 17.4081 64.1042 15.7624C64.1772 14.0801 64.2137 12.3978 64.2866 10.7521C64.3231 9.9475 64.2866 9.14292 64.2137 8.33834C64.1772 7.86291 64.1772 7.38748 64.1407 6.87548C64.1042 6.50976 64.1042 6.14404 64.0677 5.74175C63.9583 5.41261 63.8853 5.12004 63.7759 4.79089C63.63 4.24232 63.484 3.69374 63.3016 3.14516C63.2287 2.92573 63.1557 2.7063 63.0828 2.48687V2.4503C63.0098 2.34059 62.9368 2.23087 62.8639 2.08459C62.7179 1.90173 62.6085 1.71887 62.4261 1.53601C62.2072 1.28001 61.9519 1.06058 61.6965 0.841149C61.3682 0.65829 61.0034 0.512004 60.675 0.329145C60.675 0.365717 60.6386 0.365717 60.5656 0.329145C60.2373 0.21943 59.9089 0.146287 59.5806 0.0731434C59.4347 0.0365717 59.2888 0 59.1428 0C58.8145 0.0365717 58.5227 0.109715 58.1943 0.182858C57.5012 0.365717 56.8446 0.621719 56.1879 0.914292C55.8231 1.09715 55.4583 1.28001 55.0935 1.49944C54.8381 1.6823 54.6192 1.86516 54.3639 2.04801C54.072 2.30402 53.7802 2.52345 53.4883 2.77945C53.4154 2.85259 53.3424 2.88916 53.3059 2.96231C53.3059 2.96231 53.3059 2.96231 53.3424 2.92573C53.2695 2.96231 53.233 3.03545 53.16 3.07202C53.16 3.07202 53.16 3.03545 53.1965 3.03545C53.1965 3.03545 53.1965 3.03545 53.16 3.07202C53.1235 3.10859 53.1235 3.10859 53.0871 3.14516C53.0506 3.14516 53.0506 3.18174 53.0141 3.21831C52.8317 3.43774 52.6493 3.65717 52.4669 3.91317C52.2845 4.16917 52.0656 4.42517 51.8832 4.68118C51.5549 5.12004 51.263 5.5589 51.0076 6.03433C51.0076 6.03433 51.0076 6.03433 51.0076 6.0709C50.8252 6.40004 50.6428 6.76576 50.4604 7.09491C50.351 7.42405 50.2416 7.78977 50.1321 8.11891C49.7673 9.21606 49.4025 10.2766 48.9647 11.3372C48.8553 11.6298 48.7459 11.9589 48.5999 12.2515C48.5999 12.3247 48.5634 12.3978 48.5634 12.4709C48.527 12.6904 48.4175 12.8732 48.3081 13.0561C47.9068 14.7018 47.469 16.3841 47.0677 18.0298C47.0677 17.9933 47.0677 17.9933 47.0677 17.9567C46.8853 18.6881 46.7029 19.4196 46.557 20.151C46.557 20.2241 46.5205 20.3339 46.5205 20.407C46.3381 21.7236 46.1557 23.0402 46.0098 24.3567C45.8639 25.6002 45.7909 26.8436 45.7179 28.1236C45.645 29.3671 45.6085 30.6105 45.6085 31.8539C45.572 33.0974 45.6085 34.3042 45.645 35.5111C45.645 35.5111 45.645 35.5111 45.645 35.5477C44.733 35.2185 43.7845 34.9625 42.9089 34.7797C38.5312 33.8288 33.9712 33.6825 29.63 34.8894C27.9519 35.3282 26.3102 35.8402 24.7051 36.462C24.4497 36.5717 24.1943 36.6814 23.939 36.7911C23.6836 35.8768 23.4282 34.9625 23.2094 34.0482C22.6257 31.6711 22.1514 29.2573 21.9325 26.807C21.8231 25.4905 21.8231 24.1739 21.7866 22.8573V22.8939C21.7866 22.0527 21.7866 21.2116 21.7137 20.3704C21.6772 19.5293 21.6042 18.6881 21.6042 17.847C21.6042 17.847 21.6042 17.847 21.6042 17.8104C21.5677 17.0424 21.5677 16.2744 21.4948 15.5064C21.3853 14.4824 21.1665 13.495 20.9476 12.4709C20.6922 11.2275 20.3639 9.98407 19.9626 8.7772C19.6707 7.82634 19.3059 6.91205 18.9046 6.03433C18.5034 5.22975 18.1021 4.42517 17.6278 3.65717C17.5184 3.47431 17.3725 3.29145 17.2265 3.10859C17.0441 2.88916 16.8252 2.7063 16.6428 2.52345C16.4604 2.37716 16.278 2.23087 16.0956 2.08459C15.9862 2.01144 15.8768 1.9383 15.7673 1.86516C15.6579 1.82858 15.5849 1.75544 15.4755 1.71887C15.2201 1.64573 14.9647 1.57258 14.7459 1.49944C14.1257 1.38972 13.469 1.28001 12.8489 1.20687C12.5935 1.20687 12.3381 1.17029 12.0828 1.17029C11.9368 1.17029 11.8274 1.20687 11.6815 1.20687C11.6085 1.20687 11.5356 1.24344 11.4626 1.24344C8.83599 4.20574 7.34028 8.0092 5.9905 11.7029C5.11496 14.3727 4.34885 17.1521 3.8746 19.9316C3.8746 20.0047 3.8746 20.0779 3.8746 20.151C3.8746 20.1144 3.8746 20.1144 3.8746 20.0779C3.8746 20.407 3.87461 20.6996 3.83813 21.0287C3.83813 21.6139 3.87461 22.1624 3.91109 22.7476C3.94758 23.4424 3.98404 24.1739 4.057 24.8687C4.057 24.8687 4.057 24.8687 4.057 24.8322C4.057 24.9785 4.0935 25.1247 4.0935 25.271C4.12998 25.5636 4.16645 25.8562 4.20294 26.1853V26.1488C4.20294 26.2585 4.23941 26.4048 4.23941 26.5145C4.31237 26.8802 4.34885 27.2825 4.42181 27.6482C4.45829 28.0139 4.56775 28.3431 4.64071 28.7088C4.78663 29.3671 4.93255 29.9888 5.11495 30.6105C5.33384 31.3785 5.55272 32.1099 5.7716 32.8779C6.06345 33.8654 6.35529 34.8528 6.79306 35.7671C6.82954 35.8037 6.82954 35.8768 6.86602 35.9134C7.19435 36.5351 7.52268 37.0837 7.92397 37.6688C8.36174 38.2906 8.79951 38.9123 9.20079 39.5706C9.20079 39.5706 9.20078 39.5706 9.1643 39.534C9.71151 40.4117 10.2587 41.326 10.8424 42.2037C10.8789 42.2403 10.9154 42.2769 10.9154 42.3134C10.8789 42.2769 10.8789 42.2403 10.8424 42.2037C10.9883 42.4232 11.1343 42.606 11.2802 42.8254C11.2802 42.8254 11.2802 42.8254 11.2802 42.862C11.3896 43.0083 11.4991 43.1912 11.6085 43.3374C11.6085 43.3374 11.6085 43.3374 11.6085 43.3009C11.9004 43.7032 12.1922 44.1054 12.4841 44.4712C12.4841 44.4712 12.484 44.5077 12.5205 44.5077C10.3682 46.9946 8.50766 49.7741 7.30379 52.8461C6.90251 53.9432 6.5377 55.0404 6.28234 56.1741C5.80809 57.6004 6.06346 59.3193 5.00552 60.4896C4.31238 61.221 3.69221 61.989 3.10852 62.8302C3.07203 62.9033 3.03554 62.9764 2.96258 63.013C2.96258 63.013 2.96258 63.013 2.96258 62.9764C2.88962 63.0862 2.81666 63.1959 2.78018 63.269C2.78018 63.3056 2.74371 63.3056 2.74371 63.3422L2.70724 63.3787C2.67076 63.4519 2.63426 63.525 2.59778 63.5616C2.63426 63.525 2.67074 63.4519 2.67074 63.4153C2.5613 63.5982 2.45187 63.781 2.34243 64.0004C1.50337 65.2073 0.883185 66.597 0.591339 68.0965C0.00764825 70.5833 -0.10178 73.2165 0.080623 75.7765C0.153584 76.2154 0.263017 76.8005 0.481902 77.3857C0.481902 77.6783 0.591357 77.9708 0.700799 78.2268C1.02913 78.9217 1.13855 79.7263 1.68576 80.2383C3.43683 82.908 7.55917 84.7366 10.3682 85.9435C11.572 86.3823 12.63 86.7846 13.3596 87.4795C13.9797 87.5892 14.4175 88.1378 14.454 88.796C14.454 88.8692 14.454 88.9789 14.4175 89.052C14.454 89.1252 14.4905 89.1618 14.4905 89.2349C14.6729 89.6006 14.8918 89.9298 15.0742 90.2955C15.2201 90.5881 15.366 90.9172 15.5119 91.2463C15.5119 91.2463 15.5119 91.2829 15.5484 91.2829C15.6579 91.5023 15.7673 91.6852 15.8768 91.9046C16.0227 92.0875 16.1686 92.2704 16.3145 92.4532C16.6064 92.7458 16.8982 93.0384 17.1901 93.2944C17.1901 93.2944 17.2265 93.3309 17.263 93.3309C17.4454 93.4772 17.6643 93.6601 17.8832 93.8064C17.9562 93.8795 18.0291 93.9161 18.1021 93.9892C18.5034 94.0624 18.8682 94.0989 19.2695 94.1721C19.3424 94.1721 19.4154 94.1721 19.4519 94.2087C19.9991 94.2818 20.5463 94.3549 21.057 94.4281C21.057 94.4281 21.057 94.4281 21.0935 94.4281C21.4218 94.4647 21.7502 94.5378 22.042 94.5744C22.1514 94.6109 22.2609 94.6109 22.3703 94.6475C22.5892 94.6841 22.8081 94.7207 23.027 94.7572C23.5012 94.8304 24.0119 94.9401 24.4862 95.0498C24.924 95.0498 25.3252 95.0132 25.763 95.0132C26.8209 95.1229 27.8424 95.1961 28.718 95.2692C32.1107 95.3424 35.4669 95.3058 38.8596 95.5252C42.1793 95.6349 45.5356 95.2692 48.8553 95.0864C49.439 95.0498 50.0227 95.0132 50.6064 94.9401C51.263 94.8304 51.8832 94.7572 52.5398 94.6475C52.5034 94.6475 52.4304 94.6475 52.3939 94.6841C52.8682 94.6109 53.3424 94.5012 53.8167 94.4281C54.3639 94.2818 54.9111 94.1355 55.4948 93.9892C56.042 93.8064 56.5892 93.6235 57.1364 93.3675C57.3553 93.2578 57.5377 93.1481 57.7566 93.0384C57.866 92.9652 57.9755 92.8921 58.0849 92.8189C58.4862 92.4532 58.851 92.0875 59.2158 91.6852C59.6536 91.1732 60.0549 90.6246 60.4562 90.076C60.748 89.6372 60.9669 89.1983 61.2222 88.7229C61.3317 88.54 61.4046 88.3206 61.4776 88.1377C61.5141 88.028 61.5506 87.8818 61.587 87.772C61.9519 86.6749 62.3167 85.5412 62.6815 84.444C62.7909 84.188 62.8639 83.8954 62.9733 83.6394C63.2287 82.652 63.5205 81.6646 63.7759 80.6406C64.2137 78.812 64.6514 77.02 65.0892 75.1914C65.0892 75.2645 65.0527 75.3011 65.0527 75.3742C65.1622 74.9719 65.2716 74.5697 65.3446 74.1674C65.4175 73.7285 65.4905 73.2531 65.5635 72.8142C65.5635 72.5948 65.5999 72.3754 65.5999 72.1559C65.5634 71.8999 65.5999 71.6439 65.7094 71.3879C65.7458 71.3513 65.7458 71.3148 65.7823 71.2782C65.7823 71.0588 65.7823 70.8028 65.7823 70.5833C65.8553 69.3033 65.8553 67.8039 65.8188 66.3045Z" fill="#FFC4C4"/>
<path d="M50.0956 7.75342C50.0956 7.75342 50.0956 7.79055 50.0586 7.79055C50.0586 7.79055 50.0586 7.75342 50.0956 7.75342Z" fill="#FFC4C4"/>
<path d="M52.1386 4.93701C52.1386 4.93701 52.1386 4.97434 52.1386 4.93701C52.1386 4.97434 52.1014 4.97434 52.1386 4.93701C52.1386 4.97434 52.1386 4.97434 52.1386 4.93701Z" fill="#FFC4C4"/>
<path d="M52.5039 4.60791L52.4668 4.64504C52.5038 4.64504 52.5039 4.60791 52.5039 4.60791Z" fill="#FFC4C4"/>
<path d="M54.3633 73.1069H54.4003V73.1441C54.4003 73.1441 54.4003 73.1069 54.3633 73.1069Z" fill="white"/>
<path d="M15.877 41.7287C15.877 41.6914 15.877 41.6914 15.877 41.7287C15.9142 41.6914 15.9142 41.7287 15.877 41.7287C15.9142 41.7287 15.9142 41.7287 15.877 41.7287Z" fill="#FF8F8F"/>
<path d="M19.0137 39.4974C19.0137 39.4608 19.0502 39.4243 19.0502 39.3877C19.0502 39.5706 19.0137 39.7534 18.9043 39.9363C18.9408 39.7534 18.9773 39.6437 19.0137 39.4974Z" fill="#FF8F8F"/>
<path d="M26.0186 80.7138C26.201 80.7138 26.4199 80.7138 26.6023 80.6772C26.4928 80.7138 26.3834 80.7504 26.2375 80.7504C26.1645 80.7504 26.0915 80.7504 26.0186 80.7138Z" fill="#3B4046"/>
<path d="M17.9921 68.0597C19.196 68.0963 20.8011 67.3648 21.02 66.0483C20.9835 63.1957 17.3719 63.9637 15.5479 64.5122C14.2711 64.7683 13.1402 65.7557 14.4535 66.8528C14.6724 66.9991 14.7089 67.2551 14.9278 67.4014C15.0007 67.438 15.0737 67.4746 15.1466 67.4746C15.2561 67.7306 15.475 67.9866 15.7303 68.1328C14.6724 69.8517 14.5265 71.8997 14.6359 73.8746C14.6359 76.5078 15.0737 79.1409 15.9857 81.6278C16.1681 82.1032 16.5329 82.2861 16.8977 82.3227C17.5908 82.3592 18.3569 81.7009 18.0286 80.8232C17.1896 78.5192 16.7883 76.3249 16.7153 73.8015C16.6788 72.7409 16.6423 71.6803 16.8247 70.6563C16.9707 69.7054 17.5179 68.8643 17.9921 68.0597Z" fill="#3B4046"/>
<path d="M41.9242 59.3192C41.2311 57.6369 38.9693 56.8689 37.2912 57.4174C35.9049 57.966 34.4822 59.0997 34.4092 60.7089C34.2998 62.9032 35.7225 65.3535 38.1302 65.3901C40.2461 65.5729 42.289 63.6712 42.3985 61.5866C42.5809 60.8552 42.4715 60.0506 41.9242 59.3192ZM36.7075 63.0861C35.8684 62.2815 35.1024 60.782 35.9049 59.6849C36.671 58.6609 37.9843 58.2952 39.1517 58.5512C37.4736 59.1363 36.2697 61.294 38.0938 62.7935C38.5315 63.1958 39.0058 63.4152 39.48 63.4883C38.641 63.8541 37.583 63.7809 36.7075 63.0861Z" fill="#3B4046"/>
<path d="M13.5054 58.1124C13.5054 57.6004 13.3595 57.125 12.8487 56.9055C11.9002 55.6255 9.34657 55.1867 8.03327 56.101C6.68348 57.0153 5.95387 58.9901 6.39164 60.5627C6.61052 61.2941 7.04828 61.8793 7.70493 62.2816C8.1427 62.5742 8.61695 62.9399 9.16416 62.9399C10.441 63.013 11.5719 62.3913 12.338 61.4404C13.5783 60.965 14.0891 59.3924 13.5054 58.1124ZM8.21567 60.7456C7.19421 59.8679 7.55903 58.3318 8.28864 57.381C8.83585 56.7958 9.52897 56.7227 10.2586 56.8324C9.96674 56.9787 9.67491 57.1981 9.45603 57.4907C7.88736 58.6244 8.54401 60.8553 10.1856 61.4404C10.0397 61.477 9.93026 61.477 9.78434 61.477C9.12769 61.477 8.76288 61.1113 8.21567 60.7456Z" fill="#3B4046"/>
<path d="M10.1486 61.4405C10.0027 61.477 9.89327 61.477 9.74735 61.477C9.12718 61.5136 8.72588 61.1479 8.21515 60.7456C7.1937 59.8679 7.55851 58.3319 8.28812 57.381C8.83533 56.7959 9.52846 56.7227 10.2216 56.8324C9.92975 56.9787 9.6379 57.1981 9.41901 57.4907C7.85034 58.5879 8.54348 60.8187 10.1486 61.4405Z" fill="white"/>
<path d="M39.4797 63.5251C38.6042 63.8543 37.5827 63.7811 36.7072 63.0863C35.8681 62.2817 35.102 60.7823 35.9046 59.6851C36.6707 58.6611 37.984 58.2954 39.1514 58.5514C37.4733 59.1365 36.2694 61.2943 38.0934 62.7937C38.5312 63.2326 39.0055 63.452 39.4797 63.5251Z" fill="white"/>
<path d="M23.6109 91.0634C20.6195 90.8805 17.6645 90.1125 14.8191 89.2348C14.3083 89.0519 13.7247 88.9788 13.2869 88.6496C12.995 88.3571 13.2504 87.9914 13.6517 88.0279C16.0959 88.2839 18.5766 88.8325 20.9843 89.1982C22.9543 89.4542 25.1066 89.5274 27.0036 89.5274C28.7182 89.4908 30.4693 89.5274 32.1474 89.4908C32.877 89.4908 34.0809 89.2348 34.1903 90.2588C34.2268 91.2828 33.0229 91.1731 32.2933 91.1731C31.2719 91.1731 30.2139 91.1365 29.1925 91.1365C27.3319 91.2097 25.4714 91.2097 23.6109 91.0634Z" fill="white"/>
</svg>
