<svg width="89" height="79" viewBox="0 0 89 79" fill="none" xmlns="http://www.w3.org/2000/svg">
<path d="M39.691 77.554C37.8669 77.4443 36.0429 77.3711 34.1824 77.3346C32.8326 77.298 31.4463 77.298 30.0966 77.2614C28.9657 77.2614 27.8348 77.2614 26.7039 77.2614C25.9013 76.6763 25.8648 75.506 25.6824 74.5917C25.3541 72.946 25.2446 71.2637 24.9528 69.6179C24.9528 69.6179 24.9528 69.6179 24.9893 69.6179C25.1352 69.6545 25.2811 69.6545 25.427 69.6911C26.0107 69.9471 26.7403 69.4716 26.7403 68.7768C26.7403 68.4476 26.5215 68.1185 26.2296 67.9722C26.0472 67.8625 25.8648 67.8625 25.6824 67.8625C25.6094 67.8625 25.5365 67.8259 25.4635 67.8259C25.427 67.8259 25.3906 67.8259 25.3541 67.7894C25.1717 67.7528 24.9528 67.7162 24.7704 67.7162C24.2597 67.6796 23.7854 67.6065 23.2747 67.5334C23.3112 67.5334 23.3476 67.5333 23.3841 67.5699C23.2017 67.5333 23.0193 67.4968 22.8369 67.4968C22.3627 67.4236 21.8519 67.3139 21.3777 67.2408C20.867 67.1311 20.3562 66.9848 19.8455 66.8751C18.7876 66.5825 17.7661 66.3265 16.7082 66.0705C15.6502 65.8145 14.6288 65.5219 13.5708 65.2293C13.0601 65.0831 12.5494 64.9368 12.0751 64.7905C11.7833 64.7173 11.5279 64.6442 11.236 64.571C10.9442 64.4979 10.6159 64.3882 10.2876 64.4248C10.1051 64.4248 9.92275 64.4979 9.77682 64.571C8.71888 63.9493 7.62446 63.4008 6.56652 62.779C5.94635 62.3767 5.32618 61.9745 4.70601 61.499C4.66953 61.4625 4.66953 61.4624 4.63305 61.4259C4.59657 61.3893 4.59657 61.3893 4.56009 61.3527C3.86695 60.7676 3.2103 60.0727 2.59013 59.4144C1.3133 57.915 0.0364807 56.2327 0 54.1481C0.0364807 53.1607 -0.109442 52.1367 0.328326 51.2224C0.51073 50.8201 0.912017 50.5275 1.24034 50.1984C1.86051 49.5766 2.48069 48.9184 3.13734 48.2966C4.41416 46.9069 6.12876 46.1755 7.84335 45.5172C9.66738 44.7492 11.382 43.7983 13.279 43.2863C15.1395 42.8109 16.9635 42.2623 18.6781 41.348C18.9335 41.2017 19.0064 40.9092 19.1888 40.6897C20.0279 39.1903 20.5751 37.508 21.5601 36.0817C23.3841 33.3388 26.0107 31.1811 28.6373 29.2794C28.6009 27.9994 28.3455 27.2679 28.1996 26.1342C28.1996 26.0976 28.1996 26.0976 28.1996 26.0611C27.6888 24.9639 27.7618 23.6473 27.6159 22.4405C27.3605 19.661 27.397 16.8816 27.9077 14.1753C28.5279 10.4449 29.5129 6.7512 31.2639 3.38661C31.5923 2.69174 31.8841 2.25289 32.176 2.03346C32.2489 1.66774 32.6867 1.52146 33.2704 1.8506C37.5021 4.3009 41.2232 7.6655 44.397 11.3958C46.221 13.8827 47.7167 16.6256 49.2854 19.2587C51.8026 18.8564 54.3927 18.893 56.9464 19.0393C57.8219 19.1124 58.6609 19.149 59.5365 19.2222C59.6824 19.2222 59.8283 19.2587 59.9378 19.3319C59.9378 19.3319 59.9378 19.3319 59.9378 19.2953C60.3026 16.2598 61.397 13.2975 63.0751 10.7375C65.1545 7.70207 67.6352 4.8129 70.7725 2.83803C72.0129 2.07002 73.2532 1.22888 74.5665 0.643729C75.1867 0.424299 75.8433 0.351158 76.427 0.131728C77.7403 -0.416848 78.397 0.863166 78.8712 1.8506C79.2725 2.54546 79.7103 3.24032 80.0386 4.00833C81.133 6.53178 81.9721 9.16494 82.1545 11.9444C82.7382 16.589 82.9571 21.3067 82.6287 25.9879C82.5923 26.7559 82.5193 27.5239 82.4828 28.3285C82.7382 29.0965 83.0665 29.8645 83.176 30.7057C83.6137 35.4234 83.5043 40.1777 83.0665 44.8955C84.1609 45.2246 85.2189 45.7001 86.2403 46.2486C86.6781 46.5046 87.2253 46.6509 87.5901 47.0532C89.1223 49.0647 84.9635 50.9664 83.6502 51.9904C84.7081 52.5755 85.6931 53.2704 86.6416 54.0384C87.4442 54.6235 88.3197 55.5378 87.9549 56.635C87.3712 58.171 85.4742 58.2807 84.1609 58.8293C84.7081 59.7802 85.2189 60.731 85.7296 61.6819C86.3498 62.6327 86.897 63.7665 85.8755 64.6808C84.5622 65.5585 82.8476 65.4122 81.3884 65.9242C81.3154 68.4476 80.9871 70.9711 80.6953 73.4945C80.5858 74.5185 80.4764 75.5791 80.3669 76.6031C80.3669 76.8591 80.3305 77.0786 80.2575 77.3346C80.0021 77.3346 79.7468 77.3345 79.4914 77.3711C78.8348 77.3345 78.1781 77.3346 77.5579 77.3346C76.8648 77.3346 76.1352 77.3346 75.4421 77.298C74.9678 77.298 74.4571 77.2614 73.9828 77.2614C73.5451 77.2614 73.1073 77.2248 72.6695 77.2248C72.4506 77.2248 72.2318 77.2614 72.0858 77.3711C70.6631 77.2614 69.2039 77.2248 67.7811 77.1883C64.5708 77.1517 61.4335 77.1883 58.2961 77.1151C54.3197 77.1517 50.3433 76.9688 46.3669 77.1883C44.397 77.2614 42.427 77.4809 40.4571 77.6637C40.2017 77.5906 39.9463 77.5906 39.691 77.554Z" fill="#EDA89A"/>
<path d="M56.618 73.421C57.4935 75.0302 58.0407 76.8953 55.6695 77.3342C54.2102 77.5536 52.751 77.8462 51.2918 77.8462C46.2939 78.0656 41.2596 78.0656 36.2617 77.8462C33.6351 77.6999 30.972 77.8096 28.3454 77.6633C27.1051 77.5902 25.2811 77.7365 25.2081 76.0542C25.0622 74.8473 25.0987 73.6039 24.6974 72.4701C24.2231 71.1901 23.8583 69.9101 23.603 68.5935C20.6115 67.533 17.5107 66.8015 14.3733 66.2164C12.9141 65.9604 11.5278 65.3752 10.1051 64.8632C9.08364 64.5341 8.09866 64.1318 7.15017 63.6198C4.96132 62.3032 2.15231 60.8769 1.31326 58.3169C0.94845 56.6346 0.839008 53.3797 2.59008 52.4654C3.42914 51.0391 9.22956 53.1603 10.8712 53.1237C14.1909 53.014 17.4377 53.2334 20.7575 53.2334C21.7789 53.27 22.7639 53.3432 23.7854 53.4163C25.7553 53.6357 27.6158 54.2574 29.5128 54.6963C32.2854 55.4277 34.8755 56.7077 37.648 57.366C40.53 58.2438 43.339 60.0723 45.7102 61.7912C50.3068 64.6438 54.1738 68.5935 56.618 73.421Z" fill="#FFE5BE"/>
<path d="M28.9652 41.2379C28.2356 40.799 27.7613 40.0676 27.2141 39.4459C26.8128 38.9339 26.4115 38.4219 26.1927 37.8001C25.9738 37.2516 25.8279 36.5201 26.2291 36.0081C26.6669 35.3864 27.5789 35.4596 28.0167 36.0081C28.7098 36.7396 29.1476 37.6173 29.7313 38.4219C30.1691 39.007 30.8257 39.7384 30.5339 40.5064C30.315 41.1282 29.5489 41.4939 28.9652 41.2379Z" fill="#3B4046"/>
<path d="M50.4894 44.8585C50.3434 44.7854 50.234 44.7122 50.1246 44.6025C49.7233 44.8585 49.1761 44.4562 49.322 43.9808C49.3949 43.7613 49.5773 43.5419 49.7233 43.3591C50.1246 42.9568 50.4529 42.4813 50.8542 42.1156C52.0945 40.9453 53.5537 40.031 54.9765 39.1167C55.5967 38.7876 56.4722 38.6779 56.837 39.4093C57.2748 40.2139 56.6546 41.0916 56.1439 41.7133C55.1224 42.9568 53.5902 43.6151 52.2404 44.4196C51.7297 44.7122 51.1095 45.1145 50.4894 44.8585Z" fill="#3B4046"/>
<path d="M4.2683 55.9033C3.68461 55.6838 3.21036 55.245 2.84555 54.7695C1.8241 54.221 1.38633 53.0507 1.20392 51.9901C1.09448 51.3318 1.45929 50.7101 2.04298 50.4175C3.86701 49.5032 5.98289 50.3444 7.73397 51.0392C9.08375 51.6244 9.59448 53.1604 8.97431 54.477C8.13525 56.013 5.83697 56.4884 4.2683 55.9033Z" fill="#3B4046"/>
<path d="M7.33305 63.547C5.43606 62.6693 4.48756 60.6944 3.86739 58.7927C3.50258 57.4761 3.50258 55.4281 4.52404 54.3676C4.7794 54.1847 5.14421 54.4041 5.10773 54.7333C5.10773 54.9161 5.03477 55.0624 4.99829 55.2453C4.45108 57.403 4.597 58.8293 5.7279 60.7676C6.12919 61.6819 7.04121 62.0842 7.88026 62.5596C8.50043 62.8887 7.9897 63.8762 7.33305 63.547Z" fill="#3B4046"/>
<path d="M40.6027 71.2634C38.0856 71.0439 35.6049 70.7148 33.1607 70.4588C29.8045 70.0565 26.3388 69.8005 23.1285 68.7399C22.8731 68.5936 22.9826 68.1548 23.2744 68.1548C23.7122 68.1548 24.1135 68.3011 24.5512 68.3742C28.3452 69.1422 32.2122 69.2154 36.0791 69.4348C37.21 69.4714 38.3409 69.5079 39.5083 69.5445C40.2379 69.5811 41.5148 69.3982 41.5148 70.4588C41.4783 70.8977 41.077 71.2634 40.6027 71.2634Z" fill="white"/>
</svg>
