<svg width="84" height="76" viewBox="0 0 84 76" fill="none" xmlns="http://www.w3.org/2000/svg">
<path d="M11.185 71.2049C10.5284 72.8872 10.9297 73.8381 11.8052 74.3866C23.1142 74.6426 34.4597 75.3009 45.7687 75.4106C55.2537 75.5204 64.7387 75.0815 74.1142 73.9478C74.479 73.8015 74.8073 73.6552 75.1357 73.5089C75.7194 73.2895 76.2301 72.9969 76.7773 72.7044C77.1421 72.5581 77.434 72.3386 77.5799 71.9729C77.8352 71.4975 77.7623 71.0221 77.5434 70.6929C77.6163 70.5466 77.6528 70.4003 77.6528 70.2175C77.434 68.3889 76.449 66.7066 76.0112 64.9511C80.9361 59.0997 83.964 53.0653 83.1249 45.1659C82.5777 41.0698 81.3374 37.1201 79.9511 33.2435C78.5648 29.3669 77.0327 25.4903 74.9168 21.9428C74.3696 21.0651 73.8224 20.1874 73.2752 19.3097C73.8953 18.6148 74.4425 17.7737 74.8803 17.2983C76.5584 14.9211 76.8138 11.8491 75.8653 9.14276C74.9533 6.47303 73.3846 3.91301 71.0498 2.26729C67.949 0.219273 63.8996 0.109556 60.5799 1.68214C59.376 2.26729 58.2086 2.99872 57.3696 4.0593C57.2236 4.20559 57.1142 4.46159 57.0412 4.68102C55.8374 4.20559 54.597 3.83987 53.3567 3.51072C50.0005 2.633 46.5348 2.48672 43.0691 2.59643C41.2086 2.633 37.5606 2.633 35.8824 2.99872C34.4232 3.32787 32.9275 3.65701 31.5048 4.16901C31.2494 4.24215 30.994 4.35187 30.7022 4.46159C30.5198 4.16902 30.3374 3.91301 30.155 3.65701C29.3524 2.59643 28.3674 1.609 27.1636 1.02385C23.2966 -0.512158 17.9704 -0.621875 15.052 2.81586C12.5713 5.85131 11.9146 8.1919 11.9511 12.0685C12.1335 14.2994 13.5198 16.3108 15.0884 17.8468C15.2709 17.9931 15.4533 18.1028 15.5992 18.1394C15.1614 18.8708 14.3953 19.712 13.994 20.4434C13.0455 22.0891 12.4618 23.1131 11.7322 24.8686C11.5133 25.3806 11.0391 26.4412 10.7108 28.7452C8.92321 28.672 7.28158 30.0252 5.96828 31.0858C2.57557 34.2309 0.788027 38.7293 0.240817 43.2641C-0.488797 47.8356 0.496181 52.5168 2.42966 56.686C4.72794 61.2208 8.81377 64.5489 12.5713 67.8403C11.8782 69.1203 11.3674 70.8758 11.185 71.2049Z" fill="#88A1C7"/>
<path d="M46.9354 51.3101C47.1178 54.0895 46.753 57.0152 45.5856 59.5753C42.6671 65.573 34.0212 66.853 28.0019 66.597C21.8367 66.085 14.9783 64.1467 10.1264 60.197C8.41178 58.661 6.66071 57.0153 5.38388 55.0404C4.28946 52.9192 3.63281 50.5421 3.63281 48.1649C3.63281 43.4837 7.02552 39.0951 11.2938 37.4128C12.1693 37.0837 13.0813 36.7545 13.9933 36.5717C15.9633 36.2791 17.9332 36.5717 19.8667 36.0231C23.5877 35.3648 27.4912 35.7305 31.1392 36.7545C34.6049 37.9614 38.0341 39.4974 41.0255 41.6917C44.0534 44.0323 46.7165 47.3603 46.9354 51.3101Z" fill="#C0D6F8"/>
<path d="M19.903 46.6286C17.5682 46.5189 15.124 45.824 13.6283 43.9223C13.0081 42.8983 12.0596 41.9108 12.0596 40.6308C11.8407 37.0468 18.9545 37.5222 21.2528 38.144C23.3686 38.6925 25.6669 39.4605 27.0897 41.216C28.33 42.752 28.0382 44.8 26.2141 45.6777C24.3536 46.7383 22.0189 46.6652 19.903 46.6286ZM24.8644 43.776C24.9008 43.7394 24.9738 43.7394 25.0103 43.7029C24.9738 43.7029 24.9373 43.7029 24.9373 43.7029C24.9008 43.7394 24.8644 43.7394 24.8644 43.776Z" fill="#3B4046"/>
<path d="M25.3752 44.3246C25.1927 44.1418 25.0468 43.9589 24.7915 43.8858C24.4996 43.7395 24.3902 43.3372 24.5726 43.0446C24.755 42.7521 25.1928 42.7155 25.4116 42.9715C25.6305 43.1178 25.7035 43.4103 25.9224 43.5201C26.579 43.8858 25.9588 44.8001 25.3752 44.3246Z" fill="#3B4046"/>
<path d="M17.5686 55.1867C16.1094 52.4439 16.1458 49.1158 17.0579 46.1901C17.3132 45.605 17.4591 44.6541 18.1888 44.5078C19.2467 44.581 18.5536 45.6781 18.4076 46.2632C17.7875 48.4941 17.8604 50.9079 18.6995 53.1022C18.8454 53.541 18.9913 53.9799 19.1373 54.4187C19.5021 55.4062 18.0793 56.0645 17.5686 55.1867Z" fill="#3B4046"/>
<path d="M49.1979 25.0516C49.3073 25.015 49.4532 24.9419 49.5992 24.9053C48.9425 24.6127 48.1035 24.6859 47.3738 24.503C44.9296 25.6367 42.9962 31.5979 46.9361 31.8173C47.155 31.8173 47.3738 31.7808 47.5562 31.7076C45.6592 29.7693 47.1185 26.295 49.1979 25.0516ZM49.1979 23.5521C52.3352 23.6984 52.2623 27.5019 51.3867 29.6962C50.5112 31.7076 48.7601 33.5728 46.4253 33.2436C42.4854 32.8779 42.5949 28.0139 44.4554 25.4904C45.2944 24.1739 46.7902 23.2961 48.3223 23.1133C48.6142 23.1133 49.1249 23.1133 49.1979 23.5521Z" fill="#3B4046"/>
<path d="M18.2621 23.6985C18.1162 23.5522 18.0433 23.3694 18.0797 23.1134C16.6205 23.1865 15.3802 24.0642 14.6141 25.2711C13.8845 26.8437 13.4467 29.0746 15.7814 29.3306C15.8179 29.3306 15.8544 29.3306 15.8909 29.3306C15.8544 29.294 15.8544 29.2574 15.8179 29.2208C15.0883 27.1728 16.3651 24.686 18.2621 23.6985ZM19.1742 22.6745C21.1806 23.4059 21.6913 24.9785 20.9252 26.9168C20.0862 29.2574 17.5325 31.342 14.9789 30.6471C12.9724 30.0986 12.1699 28.2334 12.79 26.3317C13.1913 24.3568 14.8329 22.4917 16.8759 22.2356C17.642 22.1259 18.6634 21.9431 19.1742 22.6745Z" fill="#3B4046"/>
<path d="M18.0797 23.0769C18.0433 23.3329 18.1162 23.5158 18.2621 23.6621C16.3651 24.6495 15.0883 27.1364 15.7814 29.1844C15.7814 29.221 15.8179 29.2575 15.8544 29.2941C15.8179 29.2941 15.7815 29.2941 15.745 29.2941C13.4102 29.0015 13.848 26.8072 14.5776 25.2346C15.3802 24.0643 16.6205 23.1866 18.0797 23.0769Z" fill="white"/>
<path d="M49.5617 24.9052C49.4158 24.9418 49.3064 25.0149 49.1605 25.0515C47.1175 26.2949 45.6583 29.7327 47.5188 31.7076C47.2999 31.7807 47.1175 31.7807 46.8987 31.8173C42.9588 31.5978 44.8557 25.6367 47.3364 24.5029C48.066 24.6858 48.9051 24.6126 49.5617 24.9052Z" fill="white"/>
<path d="M16.9119 71.6806C13.7746 69.9251 10.7467 67.9137 7.79173 65.9022C7.60933 65.7194 7.64582 65.3902 7.90118 65.2805C8.22951 65.1342 8.4119 65.5731 8.66727 65.6828C11.2209 67.3651 13.957 68.6451 16.6565 70.0714C17.1673 70.3274 18.0428 70.5834 17.7874 71.3148C17.6415 71.644 17.2402 71.8269 16.9119 71.6806Z" fill="white"/>
</svg>
