<svg width="93" height="75" viewBox="0 0 93 75" fill="none" xmlns="http://www.w3.org/2000/svg">
<path d="M88.0609 53.2568C88.0609 53.2934 88.0244 53.2934 88.0244 53.33C88.0609 53.2934 88.0609 53.2568 88.0609 53.2568Z" fill="#FFF0EB"/>
<path d="M14.5879 54.5L14.6249 54.5371C14.6249 54.5371 14.5879 54.5371 14.5879 54.5Z" fill="#FFF0EB"/>
<path d="M28.2683 67.5927C29.1439 68.1047 28.4143 69.3847 27.5023 68.9458C25.4958 67.8121 23.6353 66.459 21.8113 65.0692C21.41 64.7767 21.0087 64.4841 20.6074 64.1549C20.5709 64.1184 20.5344 64.0818 20.498 64.0818C20.425 64.0087 20.3155 63.9721 20.2426 63.899C20.2061 63.8624 20.1696 63.8258 20.1331 63.8258C19.9507 63.6795 19.7683 63.5698 19.5859 63.4235C19.6589 63.1675 19.7319 62.9115 19.8048 62.619V62.5824C19.8048 62.5458 19.8413 62.5092 19.8413 62.4727C19.9143 62.5092 19.9507 62.5458 20.0237 62.5824C20.2061 62.7287 20.425 62.8384 20.6074 62.9481C20.6439 62.9847 20.7168 63.0212 20.7533 63.0578C20.7168 63.1309 20.7168 63.2041 20.7168 63.2772C20.6803 63.387 20.6803 63.4967 20.6439 63.6064C20.7168 63.5698 20.7898 63.5698 20.8628 63.6064C20.8628 63.5332 20.8628 63.4601 20.8628 63.3869C20.8628 63.3504 20.8628 63.3138 20.8628 63.2407C20.8628 63.2041 20.8628 63.1675 20.8628 63.1309C20.8992 63.1675 20.8992 63.1675 20.9357 63.1675C22.1396 63.9355 23.3799 64.7035 24.5838 65.435C25.2404 65.8372 25.9336 66.2395 26.5902 66.6418C27.1739 66.971 27.7576 67.2635 28.2683 67.5927Z" fill="#ECECEC"/>
<path d="M20.8996 63.131C20.936 63.1676 20.9361 63.1676 20.9725 63.1676C20.9725 63.2408 20.9361 63.3139 20.9361 63.387C20.8631 63.6796 20.7536 63.8991 20.6077 63.8991C20.5712 63.8991 20.5712 63.8991 20.5348 63.8991C20.5348 63.9356 20.4983 63.9722 20.4983 64.0088C20.4253 63.9356 20.3159 63.8991 20.2429 63.8259C20.2064 63.7893 20.17 63.7528 20.1335 63.7528C20.17 63.643 20.2064 63.5333 20.2429 63.4602V63.4236C20.024 63.387 19.9876 63.0945 20.024 62.7288C20.024 62.7288 20.024 62.7287 20.024 62.6922C20.024 62.6556 20.024 62.5825 20.0605 62.5459C20.2429 62.6922 20.4618 62.8019 20.6442 62.9116C20.6807 62.9482 20.7536 62.9848 20.7901 63.0213C20.7901 63.0945 20.8631 63.131 20.8996 63.131Z" fill="#ECECEC"/>
<path d="M74.5264 8.6393C77.1165 8.85873 76.8976 14.5273 75.1101 16.6119C74.2345 15.7342 73.359 14.8565 72.4834 14.0153C71.8998 13.5033 71.1336 12.845 70.2581 12.1868C70.0392 9.73646 71.9727 6.701 74.5264 8.6393Z" fill="#C6C6C6"/>
<path d="M26.9548 11.2358C27.6115 11.9672 27.8668 13.1375 27.7209 14.125C27.6844 14.1981 27.6115 14.2347 27.575 14.3078C26.6994 15.2587 25.8604 16.2095 25.0578 17.2336C24.9119 17.197 24.766 17.1604 24.62 17.0873C22.9419 16.0633 22.6501 12.7718 23.781 11.2724C24.5471 10.1752 26.1158 10.2849 26.9548 11.2358Z" fill="#C6C6C6"/>
<path d="M24.6566 65.4716C24.0729 65.2156 23.4892 64.923 22.942 64.667C22.2489 64.3013 21.5922 63.8624 20.9356 63.4236C20.8991 63.4236 20.8991 63.387 20.8626 63.387C20.7896 63.3505 20.7532 63.3139 20.6802 63.2773C20.6437 63.2407 20.6072 63.2407 20.5708 63.2042C20.3519 63.0579 20.1695 62.9116 19.9871 62.7653C19.9871 62.7653 19.9871 62.7653 19.9506 62.7287C19.8776 62.6922 19.8047 62.619 19.7682 62.5824C19.7317 62.5459 19.6952 62.5459 19.6587 62.5093C19.4399 62.363 19.2575 62.1802 19.0386 62.0339C18.7832 61.851 18.5278 61.6316 18.2725 61.4487C18.5278 61.6316 18.7832 61.7779 19.0386 61.9607C19.2939 62.1436 19.5493 62.2899 19.8047 62.4727C19.8776 62.5093 19.9141 62.5459 19.9871 62.5824C20.1695 62.7287 20.3884 62.8384 20.5708 62.9482C20.6072 62.9847 20.6802 63.0213 20.7167 63.0579C20.7532 63.0944 20.8261 63.131 20.8626 63.1676C20.8991 63.2042 20.8991 63.2042 20.9356 63.2042C22.1759 63.9722 23.4162 64.7402 24.6566 65.4716Z" fill="#C6C6C6"/>
<path d="M20.2064 63.8624C20.17 63.8259 20.1335 63.7893 20.097 63.7893C19.9146 63.643 19.7322 63.5333 19.5498 63.387C19.3674 63.2773 19.2215 63.131 19.0391 63.0213C19.0755 62.7653 19.2215 62.5458 19.4403 62.5093C19.5133 62.5093 19.5863 62.5093 19.6592 62.5093C19.6957 62.5093 19.7322 62.5459 19.7687 62.5459C19.8416 62.5824 19.9146 62.6556 19.9511 62.7287C19.9511 62.7287 19.9511 62.7653 19.9876 62.7653C20.097 62.9481 20.1335 63.1676 20.17 63.4602V63.4967C20.2064 63.6064 20.2064 63.7527 20.2064 63.8624Z" fill="#C6C6C6"/>
<path d="M20.6077 63.2044C20.6077 63.4604 20.6077 63.7164 20.6077 63.9359C20.6077 64.009 20.6077 64.0821 20.6077 64.1553C20.5712 64.1187 20.5348 64.0821 20.4983 64.0821C20.4253 64.009 20.3159 63.9724 20.2429 63.8993C20.2064 63.8627 20.17 63.8261 20.1335 63.8261C19.9511 63.6799 19.7687 63.5701 19.5863 63.4238C19.4039 63.3141 19.2579 63.1678 19.0755 63.0581L19.0391 63.0216C19.0755 62.6924 19.0755 62.3999 19.0755 62.0707C19.0755 62.0341 19.0755 61.9976 19.0755 61.9976C19.3309 62.1804 19.5863 62.3267 19.8416 62.5095C19.9146 62.5461 19.9511 62.5827 20.024 62.6193C20.2064 62.7656 20.4253 62.8753 20.6077 62.985C20.6077 63.0216 20.6077 63.1313 20.6077 63.2044Z" fill="#C6C6C6"/>
<path d="M27.5392 68.9092C25.5327 67.7755 23.6722 66.4224 21.8482 65.0327C20.0971 63.7161 18.2731 62.5092 16.6314 61.0463C16.449 60.9 16.2301 60.5709 16.449 60.388C16.5585 60.2418 16.7774 60.2783 16.8868 60.4246C17.2151 60.7903 17.6529 61.0098 18.0542 61.3023C20.8632 63.2041 23.7452 64.9595 26.6636 66.6784C27.2108 66.9709 27.758 67.2635 28.3053 67.5927C29.1443 68.1047 28.4147 69.3847 27.5392 68.9092Z" fill="white"/>
<path d="M26.9548 11.2358C27.6115 11.9672 27.8668 13.1375 27.7209 14.125C27.6844 14.1981 27.6115 14.2347 27.575 14.3078C26.6994 15.2587 25.8604 16.2095 25.0578 17.2336C24.9119 17.197 24.766 17.1604 24.62 17.0873C22.9419 16.0633 22.6501 12.7718 23.781 11.2724C24.5471 10.1752 26.1158 10.2849 26.9548 11.2358Z" fill="white"/>
<path d="M74.5264 8.6393C77.1165 8.85873 76.8976 14.5273 75.1101 16.6119C74.2345 15.7342 73.359 14.8565 72.4834 14.0153C71.8998 13.5033 71.1336 12.845 70.2581 12.1868C70.0392 9.73646 71.9727 6.701 74.5264 8.6393Z" fill="white"/>
<path d="M80.3633 23.268C80.3268 23.2315 80.2904 23.1583 80.2539 23.1217C79.7796 22.3172 79.2689 21.5492 78.7217 20.7812C78.7946 20.7446 78.8676 20.7446 78.977 20.708C79.3054 21.22 79.5972 21.732 79.8526 22.2806C79.9256 22.3537 80.1079 22.7195 80.3633 23.268Z" fill="#ECECEC"/>
<path d="M92.3288 35.3002C92.2194 35.1539 92.037 35.0808 91.7816 35.0442C91.2344 35.0076 90.7237 35.0076 90.213 35.0808C89.2645 35.0808 88.2795 35.1905 87.5499 35.3002C86.8932 33.947 86.0542 32.7036 84.9598 31.643C87.0027 31.0213 89.0456 30.4362 91.125 29.9242C92.0735 29.6316 91.8181 28.1687 90.8331 28.2053C89.8846 28.2418 88.9726 28.5344 88.0971 28.827C86.5284 29.1927 84.9962 29.6681 83.5005 30.2533C83.3181 30.0704 83.1357 29.8876 82.9533 29.7047C82.8804 29.6316 82.8074 29.595 82.7344 29.5584C82.6615 29.4853 82.5885 29.4121 82.5155 29.3756C82.4791 29.339 82.4061 29.2659 82.3696 29.2293C82.2602 29.1196 82.1872 28.9733 82.1143 28.8636V28.827C82.1872 28.3516 81.7859 27.035 81.3482 25.7184C81.1658 26.3401 80.5456 26.8156 79.8525 26.6693C79.6336 26.7058 79.4147 26.7424 79.1593 26.6693C74.0885 26.011 69.0177 24.219 65.4061 20.4521C62.4512 17.5995 59.3503 13.7595 58.7666 9.62687C58.6937 8.89543 58.5477 8.09085 58.8031 7.35942C58.949 7.13999 59.2044 7.06684 59.3868 7.17656C59.4962 7.17656 59.6057 7.17656 59.7151 7.17656C59.3138 7.06684 58.949 6.99371 58.5477 6.92056C57.125 6.62799 55.6658 6.44513 54.2065 6.33542C53.9147 6.33542 53.5864 6.18913 53.331 6.37199C53.2945 6.37199 53.2945 6.40856 53.258 6.40856C48.9898 5.89656 44.1379 6.15255 39.8696 7.39599C38.9941 7.46914 38.1186 7.76171 37.316 8.09085C36.1486 8.49314 34.9447 8.89543 33.8868 9.55372C35.1271 8.89543 36.4769 8.38343 37.8632 8.12743C38.5928 8.05428 39.0671 9.00515 38.5928 9.59029C38.9211 14.2715 37.7173 19.1355 35.0907 23.0121C34.0327 24.3287 32.7559 25.4258 31.4426 26.523C28.4512 28.7904 24.5842 30.0339 20.8267 29.8144C19.7688 29.6682 18.7838 29.3024 18.6744 28.4613C18.5649 28.6807 18.4555 28.9001 18.3825 29.1561C18.2731 29.5584 17.9812 29.9973 17.7988 30.4727C17.6529 30.6556 17.507 30.8019 17.3246 30.9482C17.2516 31.0579 17.1422 31.131 17.0327 31.2407C17.0327 31.3139 16.9962 31.3504 16.9962 31.4236C16.8503 31.5333 16.7044 31.643 16.5585 31.7527C15.6829 32.3379 14.8439 32.923 14.1143 33.5813C14.0048 33.5447 13.8954 33.5082 13.7495 33.5082C12.9834 33.2522 12.2173 33.0327 11.4512 32.8865C9.33531 32.5939 6.96405 32.155 4.84817 32.6305C4.04559 32.7036 3.35247 32.923 3.42544 33.8739C3.64432 35.1905 5.7237 34.6053 6.6722 34.715C8.05847 34.6785 9.40825 34.715 10.7945 34.8613C11.3417 34.971 11.9254 35.0442 12.4726 35.1905C11.5606 36.2145 10.7945 37.3482 10.1379 38.5916C9.29881 38.5551 8.42327 38.5551 7.58422 38.6282C6.92757 38.7014 6.27093 38.7745 5.61428 38.8842C4.73874 38.9208 3.89967 38.9939 3.02413 39.0671C1.92971 39.2134 -0.295612 39.1036 0.032714 40.7494C0.178637 41.1882 0.470496 41.4077 0.798822 41.4808C1.30955 42.0294 2.22157 41.4808 2.87823 41.2979C3.24303 41.1882 3.64431 41.1151 4.00912 41.0054C5.72371 40.7494 7.51126 40.5665 9.22585 40.4934C9.00697 41.0785 8.78808 41.7002 8.60567 42.3585C8.05846 44.2237 7.87606 46.1986 8.31383 48.1003C8.7516 49.9654 9.26234 51.8306 10.2838 53.4763C11.7795 55.89 13.8954 57.8284 16.0113 59.6935C16.7774 60.2787 17.507 60.9004 18.2731 61.5221C18.5284 61.705 18.7838 61.8512 19.0392 62.0341C19.2945 62.2169 19.5499 62.3632 19.8052 62.5461C19.8782 62.5827 19.9147 62.6192 19.9877 62.6558C20.1701 62.8021 20.389 62.9118 20.5714 63.0215C20.6078 63.0581 20.6808 63.0947 20.7173 63.1312C20.7537 63.1678 20.8267 63.2044 20.8632 63.2409C20.8997 63.2775 20.8997 63.2775 20.9362 63.2775C22.14 64.0455 23.3804 64.8135 24.5842 65.545C25.2409 65.9473 25.934 66.3496 26.5907 66.7518C27.1379 67.0444 27.6851 67.337 28.2323 67.6661C29.1078 68.1781 28.3782 69.4581 27.4662 69.0193C25.4598 67.8856 23.5992 66.5324 21.7752 65.1427C21.3739 64.8501 20.9726 64.5575 20.5714 64.2284C20.5349 64.1918 20.4984 64.1552 20.4619 64.1552C20.3889 64.0821 20.2795 64.0455 20.2066 63.9724C20.1701 63.9358 20.1336 63.8993 20.0971 63.8993C19.9147 63.753 19.7323 63.6432 19.5499 63.497C19.3675 63.3872 19.2216 63.241 19.0392 63.1312L19.0027 63.0947C19.0027 63.2775 18.9662 63.497 18.9662 63.6798C18.9297 64.2284 18.7838 65.1427 19.0756 65.6913C18.7473 67.4467 18.6014 69.2021 18.4555 70.9576C18.419 71.3233 18.3825 71.689 18.346 72.0547C18.2366 72.2742 18.3095 72.5302 18.492 72.6765C18.7473 72.8593 19.0027 72.7862 19.2945 72.7496C19.4405 72.713 19.6229 72.6765 19.7688 72.713C19.7688 72.713 19.7688 72.713 19.8052 72.713C20.2065 72.7862 20.5713 72.8227 20.9726 72.8959C21.3374 73.1153 21.8117 73.1519 22.2495 73.2616C23.7816 73.5176 25.3503 73.7005 26.8825 73.9199C29.655 74.2856 32.4641 74.249 35.2731 74.2124C36.6229 74.2124 37.9726 74.1759 39.3224 74.2124C40.4533 74.2124 41.5842 74.249 42.7151 74.249C49.9383 74.249 57.1615 73.9199 64.3847 73.5908C66.8653 73.7005 69.3825 73.8467 71.8632 74.1027C73.2495 74.2856 74.6722 73.7736 75.6937 72.8593C76.0949 72.7496 76.4962 72.5667 76.8246 72.3107C77.1894 72.2742 77.4812 72.0182 77.7731 71.7987C78.2838 71.2136 78.3567 70.3724 78.4662 69.6044C78.6486 67.7758 78.7945 65.9107 78.7945 64.0455C78.8675 64.009 78.904 63.9724 78.9769 63.9358C79.4147 63.7164 79.7795 63.4604 80.1443 63.1678C80.2538 63.0947 80.3632 63.0215 80.4361 62.9484V62.9118C80.4726 62.8752 80.4726 62.8752 80.5091 62.8387C81.2022 62.3998 81.8589 61.8512 82.4426 61.2661C82.9533 60.8272 83.3911 60.3884 83.7924 59.8764C83.8289 59.8398 83.8653 59.8398 83.8653 59.8032C84.0842 59.5838 84.3031 59.3278 84.522 59.1083C84.8138 58.7426 85.1057 58.3769 85.361 58.0112C85.6164 57.6089 85.8718 57.2432 86.0907 56.8409C86.419 56.2558 86.7473 55.7072 87.0391 55.1221C87.3675 54.6466 87.6593 54.098 87.8782 53.5495C88.3889 52.05 88.8632 50.514 89.1915 48.9414C89.2645 48.6489 89.3374 48.3197 89.4104 47.9906C89.4469 47.6614 89.4834 47.3688 89.5198 47.0397C89.5198 46.9666 89.5198 46.8934 89.5198 46.8203C89.7022 45.2111 89.7022 43.6385 89.4469 42.0294C89.228 40.4202 88.8632 38.8111 88.316 37.2751C89.4469 37.0922 90.5778 36.9825 91.7087 36.9459C91.9276 36.9459 92.11 36.8728 92.2559 36.7631C92.4018 36.7265 92.5842 36.7265 92.6936 36.6168C93.2409 35.8853 92.9855 35.5196 92.3288 35.3002Z" fill="#ECECEC"/>
<path d="M37.8262 8.09082C38.5558 8.01768 39.0301 8.96854 38.5558 9.55369C38.8841 14.2349 37.6803 19.0989 35.0537 22.9755C33.9957 24.2921 32.7189 25.3892 31.4056 26.4864C28.4142 28.7538 24.5472 29.9973 20.7897 29.7778C19.7318 29.6315 18.7468 29.2658 18.6373 28.4247C18.6009 28.1321 18.6738 27.7664 18.8927 27.3275C19.4399 26.1572 20.0236 24.9869 20.7167 23.8898C20.8992 23.4875 21.118 23.1218 21.3369 22.7195C21.264 22.7195 21.191 22.6829 21.0816 22.6829C16.5215 21.2566 14.4421 14.7834 16.2661 10.6508C17.0687 9.11483 18.1996 7.83483 19.367 6.59139C20.7167 5.12852 22.3219 3.92165 24.3283 3.59251C27.2833 2.78793 30.5665 4.43366 31.588 7.32282C32.0258 8.31026 32.3541 9.33426 32.3906 10.3948C32.6824 10.212 32.9378 10.0657 33.2296 9.9194H33.2661C33.412 9.84626 33.558 9.73655 33.7404 9.66341C33.7768 9.62684 33.8498 9.62683 33.8863 9.59026C35.0902 8.85883 36.4035 8.34682 37.8262 8.09082Z" fill="#C6C6C6"/>
<path d="M84.0113 8.63924C84.522 11.1627 84.5585 13.9056 83.5005 16.3193C82.9898 17.709 82.1143 18.9525 80.8374 19.7205C80.3632 20.013 79.6701 20.4153 78.9769 20.7079C78.904 20.7445 78.831 20.781 78.7216 20.781C79.2688 21.5125 79.7795 22.3171 80.2537 23.1216C80.2902 23.1582 80.3267 23.2313 80.3632 23.2679C80.6915 23.7799 81.0198 24.2919 81.2387 24.8771C81.3847 25.1696 81.3847 25.4622 81.3117 25.7182C81.1293 26.3399 80.5091 26.8154 79.816 26.6691C79.5971 26.7057 79.3782 26.7422 79.1229 26.6691C74.052 26.0108 68.9812 24.2188 65.3696 20.4519C62.4147 17.5993 59.3138 13.7593 58.7301 9.62668C58.6572 8.89524 58.5113 8.09066 58.7666 7.35923C58.9125 7.1398 59.1679 7.06666 59.3503 7.17637C59.4598 7.17637 59.5692 7.17637 59.6786 7.17637C60.8095 7.17637 62.1593 7.57867 63.5821 8.20039C63.7645 7.43238 64.2752 6.77408 64.64 6.07922C65.3696 4.57978 66.5735 3.44606 67.9233 2.4952C69.2731 1.50776 70.6958 0.556905 72.3374 0.191188C74.052 -0.174528 75.9855 -0.0282416 77.5542 0.739764C80.7645 2.16606 83.3181 5.16493 84.0113 8.63924Z" fill="#C6C6C6"/>
<path d="M28.2686 37.0188C26.0433 36.9457 24.8759 34.7879 24.2557 32.9228C23.4531 29.7776 23.8179 26.2667 25.8244 23.6336C25.6785 22.7924 26.6634 22.2804 27.2836 21.9147C28.7428 21.1833 31.0776 22.3536 31.9167 23.597C33.4124 25.7913 33.9231 28.6439 33.4489 31.2771C33.23 32.6668 32.9381 34.0931 32.0991 35.2268C31.187 36.2874 29.7278 37.0919 28.2686 37.0188ZM28.5969 35.6291C30.0562 35.2999 31.0411 34.1662 31.26 32.7034C31.6613 30.6553 32.0261 28.6805 31.2235 26.7056C30.9317 25.7547 30.4939 24.6941 29.5454 24.1821C28.9252 23.8896 28.1956 23.4507 27.5025 23.853C27.1012 24.0359 26.6999 24.4016 26.2257 24.1821C24.6205 26.5227 24.1098 29.5216 24.8394 32.2645C25.3866 33.9102 26.7364 35.6291 28.5969 35.6291Z" fill="#3B4046"/>
<path d="M29.5451 34.9342C27.2103 33.7639 26.6631 30.6553 27.1738 28.3147C27.5751 26.7787 28.0493 24.8404 29.5815 24.0358C30.1287 23.8164 31.0408 23.5238 31.3691 24.2187C31.515 24.5844 31.1502 25.0233 30.7489 24.9501C29.9099 25.3158 29.691 26.3399 29.4356 27.1444C28.9614 28.973 29.0343 31.2039 30.4206 32.6668C30.8219 32.9593 31.3326 33.1056 31.5515 33.5811C32.1352 34.8611 30.603 35.7022 29.5451 34.9342Z" fill="#3B4046"/>
<path d="M29.6552 33.2522C27.5758 32.5939 29.035 26.6327 29.4728 25.0236C29.5458 24.8041 29.6187 24.5847 29.7282 24.4384C30.1295 23.7801 31.1509 24.1093 31.1144 24.8773C32.9749 25.0601 32.0629 28.8636 32.0629 30.1436C32.0629 30.8385 32.6831 31.4602 32.3548 32.155C32.1359 32.6305 31.6252 32.923 31.1509 32.8865C30.7861 33.2888 30.2024 33.435 29.6552 33.2522Z" fill="#3B4046"/>
<path d="M29.3262 35.7022C25.8606 33.5444 25.2404 28.3513 27.5387 25.133C28.2318 24.3284 28.8155 23.1947 29.9099 22.9386C30.2747 22.7924 30.749 23.0849 30.7855 23.4872C30.8584 23.9627 30.3477 24.0358 30.2018 24.4015C28.5601 27.1444 27.9764 31.3867 30.9314 33.4713C32.2082 34.605 30.749 36.6165 29.3262 35.7022Z" fill="#3B4046"/>
<path d="M61.6848 36.0312C59.0581 35.4095 58.1461 32.4838 58.1097 30.07C58.0732 27.766 58.3285 25.1329 59.8607 23.3043C59.8242 23.0483 59.9702 22.7557 60.1891 22.6094C60.7363 22.2437 61.247 21.8414 61.8307 21.5488C63.3994 20.9637 65.2599 21.7317 66.3908 22.902C66.938 23.6334 67.2298 24.5111 67.5582 25.3523C68.6526 28.3512 67.9594 31.9718 65.9165 34.4221C64.9316 35.5924 63.2534 36.5432 61.6848 36.0312ZM62.6697 34.7878C64.6762 34.4586 65.7706 32.374 66.2084 30.582C66.865 28.4243 66.2813 26.0837 65.0775 24.2186C64.3843 23.5968 63.3994 22.9751 62.4509 23.2311C61.7942 23.414 61.247 23.9991 60.5903 24.0357C58.6933 26.5957 58.5109 34.3855 62.6697 34.7878Z" fill="#3B4046"/>
<path d="M63.4361 35.2632C59.3138 33.398 59.8245 25.9008 63.2537 23.6334C63.8374 23.3774 64.7859 23.0117 65.2601 23.6334C65.479 23.926 65.1506 24.438 64.7858 24.2185C62.4511 24.9866 61.8309 29.558 62.7065 31.5695C63.0348 32.374 63.4725 33.2152 64.3116 33.6175C65.2966 34.2392 64.494 35.7021 63.4361 35.2632Z" fill="#3B4046"/>
<path d="M63.9104 34.532C63.3996 34.3126 63.1078 33.6909 63.2902 33.1788C63.2902 33.1423 63.2902 33.1423 63.3266 33.1057L63.2902 33.0691C61.0284 32.74 61.8309 29.7411 62.3052 28.2051C62.3782 26.9617 62.4511 25.2428 63.7644 24.6577C64.0563 24.2188 64.3846 23.5605 64.9683 23.5239C65.2601 23.5239 65.5155 23.6336 65.6249 23.8896C66.0262 23.8531 66.391 24.0359 66.6099 24.3651C66.7194 24.5114 66.7923 24.6576 66.8288 24.8039C67.7773 25.3525 67.449 26.6325 67.3031 27.5102C67.0477 28.9731 66.7923 30.4725 66.2086 31.8257C66.0992 32.5206 66.0992 33.3251 65.6614 33.9103C65.2237 34.3491 64.6035 34.8611 63.9104 34.532Z" fill="#3B4046"/>
<path d="M28.9978 35.5194C28.8884 35.556 28.7425 35.5926 28.5965 35.6291C26.736 35.6291 25.3498 33.9103 24.8755 32.228C24.1459 29.4851 24.6566 26.4862 26.2618 24.1456C26.6995 24.3651 27.1373 23.9993 27.5386 23.8165C27.9034 23.6336 28.2682 23.6336 28.633 23.7433C28.2317 24.1822 27.9034 24.6942 27.5386 25.1331C25.2768 28.2416 25.7875 33.252 28.9978 35.5194Z" fill="white"/>
<path d="M63.8734 23.414C63.6545 23.4872 63.4721 23.5603 63.2897 23.6334C60.1159 25.718 59.4227 32.3741 62.633 34.7878C58.5107 34.3489 58.6931 26.6323 60.5536 24.0357C61.2103 24.0357 61.794 23.4506 62.4141 23.2312C62.9249 23.0849 63.3991 23.1946 63.8734 23.414Z" fill="white"/>
<path d="M45.5235 36.6165C45.6695 38.0428 44.8304 40.8954 43.2982 41.3709C42.7875 44.0772 42.824 46.9663 42.7145 49.7458C42.678 50.6967 42.6416 51.6475 42.5321 52.5252C42.4956 53.1469 42.3497 53.8052 41.6201 53.7687C41.1823 53.7321 40.8175 53.3664 40.854 52.9275C40.8905 51.7207 40.9635 50.5504 40.9999 49.3435C41.0364 48.0269 41.0729 46.7469 41.1458 45.4303C41.3283 43.8577 41.1823 42.212 41.766 40.7492C40.6716 39.14 39.1394 37.7868 38.6287 35.8851C37.972 33.8371 40.1609 31.9719 42.0944 32.3377C43.8454 32.7034 45.2682 34.8977 45.5235 36.6165Z" fill="#3B4046"/>
<path d="M30.7127 33.764C29.4358 33.0692 31.041 31.0212 32.0625 31.972C32.5732 32.4109 32.2084 33.0326 31.9165 33.508C31.6612 33.8737 31.114 33.9469 30.7127 33.764Z" fill="#3B4046"/>
</svg>
