<svg width="89" height="85" viewBox="0 0 89 85" fill="none" xmlns="http://www.w3.org/2000/svg">
<path d="M87.6541 36.609C86.9245 31.8181 83.5683 27.5027 78.6069 26.2593C76.6004 25.8204 74.4116 25.6741 72.3687 26.2227C70.9459 23.1872 68.903 20.4078 66.2399 18.2135C65.7657 17.8112 65.2549 17.482 64.7077 17.1529C63.3215 16.0557 61.7528 15.1049 60.0747 14.4466C58.6884 13.8249 57.2292 13.2397 55.77 12.8009C54.2013 12.3986 52.5961 12.3986 50.991 12.1792C49.6047 11.9232 48.2185 11.85 46.8322 11.85C47.197 11.7037 47.5253 11.4843 47.8537 11.2649C49.7871 9.80199 50.0425 8.11969 48.5103 6.25454C47.0511 4.68195 44.461 4.90139 42.6004 5.59625C40.9588 6.07168 39.7549 7.31512 38.7335 8.59513C39.2077 6.58369 39.9009 4.42595 39.1348 2.41451C38.77 1.20764 37.8215 -0.0357841 36.3987 0.000787566C32.7507 0.366504 32.0575 5.34025 31.8751 8.15627C30.7442 5.44996 28.7013 2.01223 25.1627 2.56081C23.1927 3.03624 22.7914 5.55969 23.3022 7.20541C23.667 8.44885 24.2142 9.69227 25.1992 10.57C26.0017 11.2649 26.8408 11.9597 27.7163 12.5814C25.1627 12.2157 22.5361 12.618 20.0554 13.3129C15.2764 14.5197 10.9717 18.0306 9.33005 22.6021C6.84937 30.0993 9.69486 32.8787 11.4459 39.7908C11.7013 41.9851 9.18413 43.1919 7.83434 44.5817C2.58113 49.0434 -1.1399 53.7246 0.319324 60.8561C0.975976 63.9281 2.90945 66.4881 5.09829 68.7555C6.95881 70.767 9.51246 72.0104 12.1755 72.7418C11.1906 74.7533 10.6434 76.9842 10.0597 79.1419C9.95022 80.0562 9.33005 81.0802 9.8043 81.9945C10.1326 82.5065 10.8622 82.6894 11.373 82.3968C11.6648 82.6162 11.9931 82.7991 12.3215 82.9088C12.6133 82.7991 12.9781 82.7259 13.3429 82.7991C18.7056 83.7134 24.1412 83.7499 29.5404 83.8231C34.8301 83.8597 40.0833 84.0425 45.373 84.0791C50.918 84.1156 56.4996 84.1157 62.0446 84.0059C64.0876 83.9694 66.094 83.8962 68.1369 83.7865C69.2678 83.6036 70.3987 83.3842 71.4931 83.2014C72.4781 83.0185 73.4996 82.9088 74.4846 82.7625C75.2142 82.9819 76.3086 82.5065 77.0382 82.3602C77.9137 82.1042 78.8987 81.9945 79.6283 81.3728C80.0296 81.0071 80.1755 80.5316 80.2485 80.0196C80.3215 79.8368 80.3579 79.6173 80.3579 79.3979C80.3944 78.959 80.4309 78.5202 80.4309 78.0813C80.5039 77.4596 80.5768 76.8745 80.6133 76.2527C80.9781 71.6813 80.7957 67.0367 80.4309 62.4652C80.3215 61.8435 79.7743 53.6149 78.7528 53.432C78.7528 53.3223 78.7528 53.2491 78.7163 53.1394C79.8472 52.7006 80.9781 52.2983 82.0725 51.7497C83.8236 50.7623 85.4288 49.4091 86.4867 47.7268C88.4931 44.2891 88.3837 40.2662 87.6541 36.609ZM78.2056 47.288C78.0961 46.4102 77.9502 45.5325 77.8043 44.6548C77.2571 41.9119 76.1992 39.3153 75.579 36.609C75.1412 34.7804 74.7034 32.9519 74.1562 31.1599C75.1777 30.8307 76.3086 30.8307 77.476 31.3061C79.7743 32.257 82.0361 34.0125 82.6198 36.4628C83.5683 40.1565 81.7077 45.2765 78.2056 47.288Z" fill="#B27F62"/>
<path d="M46.8687 23.809C55.9888 25.0159 60.2571 30.2822 56.2077 38.84C55.4052 40.7051 53.873 42.2411 52.0489 43.2286C50.6262 43.9966 45.6648 45.6789 46.2485 47.6537C47.8172 52.3715 50.6627 57.8938 44.7893 60.9659C42.7099 62.0264 40.4116 62.5384 38.2228 63.1967C36.5811 63.599 34.9395 64.1476 33.2249 64.111C28.7013 63.5624 24.1047 63.6721 19.5811 63.3064C16.3343 63.1236 14.9116 62.2458 12.7592 59.9418C11.9931 59.1007 11.0811 58.4058 10.3515 57.5281C9.87726 56.4675 9.84078 55.2607 9.87726 54.1635C9.87726 52.5543 10.4974 51.0183 11.373 49.6652C12.1755 48.3852 13.5253 47.5075 14.3644 46.2274C14.8386 45.496 15.7142 44.8011 15.6777 43.8503C15.5682 42.4971 15.2764 41.1074 14.6927 39.9005C14.109 38.8034 13.4159 37.7428 12.9416 36.6091C12.1026 34.3051 11.373 31.7816 11.7013 29.3313C12.1026 27.1736 13.3429 24.9062 15.4223 23.8822C17.4652 22.9679 19.8 23.6993 21.8429 24.1382C23.2657 24.3576 24.6884 24.5404 26.0017 25.089C28.0446 25.1256 30.0876 25.2719 32.094 25.1256C34.5382 24.9062 36.9459 24.577 39.3537 24.2479C41.8343 23.6993 44.3515 23.4433 46.8687 23.809Z" fill="#FFE6D7"/>
<path d="M82.6198 36.4994C83.8966 41.4731 80.0296 49.0801 73.9373 48.0926C71.4202 47.8366 70.0339 45.7886 69.4867 43.5943C68.7936 41.2537 69.1584 38.8034 69.7056 36.4628C70.3258 33.1714 73.8644 29.7336 77.4395 31.3428C79.7743 32.2937 82.0361 34.0491 82.6198 36.4994Z" fill="#FFE6D7"/>
<path d="M23.3022 34.9267C21.3322 34.6341 21.5876 30.5015 23.8494 31.0501C26.1841 31.1964 25.6369 35.4021 23.3022 34.9267Z" fill="#3B4046"/>
<path d="M39.0618 35.5484C38.0039 34.1587 40.1197 31.2329 41.7979 32.2935C44.0232 33.8295 41.0318 37.8524 39.0618 35.5484Z" fill="#3B4046"/>
<path d="M28.8107 38.3643C28.1906 38.2912 28.0446 36.5723 28.0811 36.0603C28.1176 35.5483 28.7743 35.4021 29.0661 35.8409C29.5039 36.4992 29.2485 37.3404 29.3579 38.1084C29.3579 38.2181 29.3579 38.2912 29.3579 38.4009C29.2485 38.6204 28.8837 38.6203 28.8107 38.3643Z" fill="#3B4046"/>
<path d="M31.6927 38.1085C31.7657 37.3404 32.5682 35.9141 33.4438 35.8044C34.2828 35.7678 34.4288 36.7919 33.9545 37.2673C33.6991 37.633 32.6777 38.3279 32.2764 37.9987C32.1305 38.2182 31.8022 38.4376 31.6927 38.1085Z" fill="#3B4046"/>
<path d="M23.1562 47.9462C22.5725 48.0193 22.1348 47.4342 22.682 47.0685C23.8858 46.593 25.2356 46.593 26.5125 46.3736C28.9931 46.081 31.5468 45.8982 34.064 46.081C34.9395 46.081 35.2313 47.1782 34.3923 47.5073C32.6047 47.7999 30.7442 47.5073 28.9202 47.6536C26.9867 47.6902 25.0897 47.9827 23.1562 47.9462Z" fill="#3B4046"/>
<path d="M27.0597 75.7772C24.5425 75.5212 21.9888 75.7406 19.4717 75.3749C17.3923 75.0092 15.3129 74.5703 13.2335 74.2046C12.7957 74.0949 12.3579 73.9121 11.9202 73.9121C11.6283 73.9121 11.3365 73.9486 11.0446 73.8755C10.8258 74.1681 10.3515 73.8755 10.5339 73.5463C10.5704 73.4366 10.6069 73.3635 10.6798 73.3269C10.7528 73.0343 11.1176 72.8515 11.4094 72.7418C12.2485 72.4492 13.0876 72.5223 13.9266 72.7052C16.079 72.9246 18.1584 73.4366 20.3107 73.7292C23.7399 73.9486 27.2056 74.0218 30.6712 74.0583C30.9996 74.0583 31.3279 74.2412 31.4009 74.6069C31.4738 74.9726 31.2185 75.3018 30.8537 75.3749C29.6133 75.6309 28.3365 75.8138 27.0597 75.7772Z" fill="white"/>
</svg>
