<svg width="92" height="82" viewBox="0 0 92 82" fill="none" xmlns="http://www.w3.org/2000/svg">
<path d="M91.159 52.517C92.3993 54.2358 89.8456 57.2713 88.8607 58.6244C86.9637 60.7456 84.8113 62.5376 82.9143 64.6953C81.8564 65.7925 80.3242 67.6211 79.0474 65.7925C78.5002 64.9513 78.5002 63.8176 78.3542 62.8302C78.0259 60.1239 77.4787 57.1616 76.968 54.5284C76.5667 52.6267 76.056 50.7249 75.6547 48.8232C75.4358 48.1649 75.4723 47.3969 75.9465 47.0312C74.998 46.6289 74.9615 45.2758 74.6332 44.3615C73.9765 42.4232 73.174 40.5214 72.5538 38.5831C72.0796 37.0471 71.5688 35.5111 70.9487 34.0483C70.7298 33.3534 70.1461 32.3294 70.0731 31.4516C69.7083 31.5248 69.3435 31.4151 69.0517 31.0859C68.7598 30.7934 68.6504 30.3179 68.468 29.9157C67.7384 28.4894 66.7899 27.2093 65.9873 25.8196C64.8564 23.991 63.8714 22.0162 62.7405 20.1876C62.2663 19.4927 61.7555 18.7978 61.2813 18.103C61.2083 17.9933 61.1354 17.847 61.0989 17.7007C60.7705 17.8836 60.3328 17.8836 59.968 17.7007C57.7426 16.9327 55.6997 15.7624 53.6203 14.7018C50.9208 13.5681 48.1847 12.6172 45.4122 11.7029C45.0109 11.8858 44.6096 12.0321 44.2083 12.215C44.1718 12.2515 44.1354 12.2881 44.1354 12.3247C44.0259 12.5075 43.807 12.5441 43.6611 12.471C42.3843 13.0195 41.071 13.5315 39.7942 14.0801C37.7512 14.9944 35.6718 15.9087 33.7384 17.079C33.1182 17.335 32.1697 18.4321 31.513 18.0664C31.4036 18.2859 31.2212 18.3956 30.9293 18.2858C30.1632 17.9201 30.8929 16.3476 30.9658 15.6527C31.1482 14.9578 31.2941 14.263 31.513 13.6047C31.513 13.5681 31.5495 13.495 31.586 13.4584C31.8049 12.5807 32.0967 11.7029 32.3886 10.8618C33.0452 8.70407 33.9937 6.69262 35.1611 4.82747C35.8907 3.58403 36.9851 2.15773 38.189 3.65717C40.4508 5.63204 43.0044 7.16806 45.2298 9.17951C47.6375 6.4732 54.6418 0.329145 57.925 0C58.9465 0.329145 58.9465 1.82859 59.2019 2.81602C60.0044 6.43662 60.7341 10.0938 61.3178 13.751C61.3542 14.2995 61.5002 14.8847 61.6096 15.4698C64.7834 14.8116 68.1032 14.8847 71.3135 14.8481C72.7362 14.8847 74.1225 15.031 75.5452 15.1407C77.5881 15.2138 76.9315 17.5544 76.3113 18.9076C75.071 21.9064 73.7212 24.8687 72.3714 27.7945C72.2255 28.1236 72.0796 28.4162 71.9336 28.7454C74.5602 28.7454 77.1868 29.2939 79.7405 29.9157C81.3821 30.2814 83.0238 30.6471 84.556 31.3054C85.4315 31.5248 86.0517 32.3294 85.9787 33.3534C85.7963 36.2791 82.5495 39.7534 80.8714 41.9477C79.9594 43.0814 79.1203 44.2883 78.2448 45.4586C78.2083 45.5318 78.1718 45.6049 78.0989 45.678C80.7255 46.7386 83.425 47.6163 85.9422 49.0792C87.6933 50.2129 89.6633 51.0541 91.159 52.517Z" fill="#80C455"/>
<path d="M16.8471 66.3779C17.3214 70.7665 17.1755 75.1917 17.0295 79.6168C17.0295 79.8728 16.993 80.1654 16.993 80.4214C27.463 79.9826 37.933 81.6283 48.4394 81.7014C54.5681 81.738 60.6969 81.0431 66.8257 80.4946C72.0059 80.0557 77.2227 80.0923 82.4029 79.7631C82.2205 78.7757 82.0381 77.7883 81.8922 76.7642C81.8192 76.0694 81.7463 75.4111 81.7098 74.7162C81.6733 74.1311 81.7098 73.5825 81.6733 72.9974C81.6368 72.1928 81.5639 71.3882 81.4909 70.5471C81.3815 69.7425 81.272 68.9379 81.1261 68.1333C80.9437 67.1459 80.7613 66.1219 80.5789 65.1345C80.5789 65.171 80.6154 65.2442 80.6154 65.2807C80.3235 63.7447 80.0317 62.1721 79.7033 60.6361C79.375 59.0636 79.0102 57.491 78.6819 55.8818C78.2806 53.9069 77.9887 51.9321 77.551 49.9938C77.4051 49.4818 77.2227 48.9698 77.0403 48.4943C76.2012 45.4223 74.9244 42.204 74.2312 38.9857C73.83 37.8885 73.4652 36.828 73.0274 35.7674C72.2248 33.7925 71.4222 31.8176 70.5102 29.8793C69.9995 28.8919 69.4887 27.9045 69.051 26.8805C68.8686 26.4782 68.6862 26.0759 68.5038 25.6736C68.2849 25.2713 68.1025 24.9056 67.8836 24.5033C67.6282 24.0279 67.3364 23.5159 67.081 23.0404C66.5703 22.2359 66.0231 21.4679 65.4029 20.6999C65.2205 20.4804 65.0381 20.261 64.8192 20.005C64.7098 19.8953 64.6368 19.7856 64.5639 19.6759C64.4909 19.6027 64.4179 19.493 64.345 19.4198C64.2355 19.2736 64.0896 19.1273 63.9802 18.9444C63.7248 18.6153 63.4694 18.3227 63.2141 17.9935C62.9222 17.6278 62.6669 17.2987 62.4115 16.933C62.1561 16.7135 61.8643 16.4941 61.5724 16.2747C61.463 16.2015 61.3536 16.1284 61.2441 16.0552C60.8064 15.7627 60.3321 15.5067 59.8943 15.2507C59.4566 14.9947 59.0188 14.7387 58.581 14.5192C57.669 14.1169 56.7205 13.7878 55.8085 13.4587C55.3707 13.3124 54.8965 13.1661 54.4587 12.9832C54.0209 12.8369 53.6197 12.6175 53.1819 12.4712C52.0145 12.1787 50.8106 11.9958 49.6433 11.8495C49.5703 11.8495 49.4973 11.8495 49.4244 11.8129H49.3879C48.2205 11.7398 47.0167 11.7398 45.8493 11.7032C45.2291 11.7032 44.6089 11.6666 44.0252 11.6666C43.4051 11.6666 42.8214 11.6301 42.2012 11.6666C40.9973 11.7398 39.7935 11.8861 38.5896 11.9592C38.0059 11.9958 37.4222 12.0324 36.8385 12.0689C36.4008 12.1055 35.963 12.1421 35.5252 12.1787C34.5038 12.5444 33.4823 12.9466 32.4973 13.4221C31.7677 13.7512 31.0381 14.117 30.3085 14.4827C29.9802 14.629 29.6518 14.8118 29.3235 14.9947C29.2506 15.0678 29.1776 15.1409 29.1046 15.1775C27.8278 16.2747 26.5145 17.3718 25.4201 18.6884C24.4716 19.7856 23.8514 20.9558 22.83 22.1261C21.0424 23.9913 18.5252 24.4302 16.2999 25.3079C12.433 26.7342 7.72695 27.5753 4.84497 31.0131C3.49519 32.8417 2.21837 34.7799 1.45228 37.0108C0.905065 38.8028 0.503775 40.6314 0.138968 42.46C-0.189358 44.3617 0.102494 46.3 0.613224 48.092C0.868589 49.2258 1.19691 50.3961 2.18189 50.9812C4.18833 52.5172 6.34069 53.8338 8.56601 54.8944C8.67545 55.443 8.89433 55.955 9.07674 56.467C9.73339 58.0395 10.39 59.5755 11.1561 61.075C12.4694 63.4887 14.5124 65.2807 16.8471 66.3779Z" fill="#B6E59E"/>
<path d="M28.3387 59.3561C26.5511 58.8807 24.7636 58.771 22.9395 58.515C20.4589 58.1127 17.9782 57.6373 15.4975 57.0155C12.9074 56.3207 10.2808 55.955 7.72711 55.1504C6.99749 55.1504 6.74212 54.2727 7.43525 53.8704C8.27431 53.6144 9.14985 54.0532 9.9889 54.1264C14.2571 54.6018 18.4159 55.7721 22.6477 56.4304C24.8001 56.723 26.9524 56.8692 29.0318 57.4178C30.4911 57.5641 31.9503 57.7104 33.373 58.0761C34.2121 58.2956 34.1026 59.7584 33.1906 59.7584C31.5855 59.6121 29.9438 59.6487 28.3387 59.3561Z" fill="white"/>
<path d="M31.5861 27.7214C31.6591 27.6848 31.732 27.6482 31.8415 27.6117C31.0754 26.9168 30.82 25.4905 31.4402 24.5762C31.6591 24.2105 31.9874 23.9179 32.3522 23.7351C32.0603 23.5522 31.6955 23.4425 31.3672 23.4059C31.1848 23.3693 30.9659 23.4425 30.82 23.2596C28.4123 23.9179 28.011 27.6117 30.9294 27.758C31.1118 27.7945 31.3672 27.7945 31.5861 27.7214ZM32.3887 22.6014C33.7749 23.0036 34.4316 24.8688 34.0668 26.3317C33.7384 27.9408 32.0968 28.782 30.7106 28.5625C26.1505 27.9043 28.5582 21.5408 32.3887 22.6014Z" fill="#3B4046"/>
<path d="M47.9288 26.8802C47.8559 26.8071 47.7464 26.734 47.6005 26.6974C47.3087 26.5877 46.9803 26.6608 46.6885 26.6974C46.5061 26.734 46.2872 26.7705 46.1778 26.5511C45.5941 26.6243 45.3022 27.3191 45.0104 27.8311C44.2808 29.1843 44.9739 30.7934 46.3602 31.0129C46.6155 31.0494 46.8344 31.0129 47.0533 30.9397C45.6306 30.0254 46.3602 27.0997 47.9288 26.8802ZM49.3151 28.3797C49.1327 30.5374 47.2722 32.7317 45.3387 31.5248C43.8795 30.7934 43.77 28.6723 44.6091 27.3191C44.9739 26.6608 45.5211 25.8928 46.2872 26.0025C47.8194 25.2345 49.4975 26.5511 49.3151 28.3797Z" fill="#3B4046"/>
<path d="M31.8409 27.6118C31.7679 27.6484 31.695 27.6849 31.5855 27.7215C31.3667 27.7947 31.1113 27.7581 30.8924 27.7581C27.9739 27.6118 28.3752 23.9546 30.783 23.2598C30.9289 23.4426 31.1478 23.3695 31.3302 23.406C31.6585 23.4426 32.0233 23.5523 32.3151 23.7352C31.9503 23.9181 31.622 24.2106 31.4031 24.5763C30.8194 25.4906 31.0383 26.9169 31.8409 27.6118Z" fill="white"/>
<path d="M47.6372 26.6975C47.7466 26.7341 47.8561 26.8072 47.9655 26.8804C46.3968 27.1364 45.6672 30.0621 47.09 30.9033C46.8711 30.9764 46.6522 31.013 46.3968 30.9764C45.047 30.757 44.3539 29.1478 45.047 27.7947C45.3389 27.2827 45.6307 26.6244 46.2144 26.5146C46.3239 26.6975 46.5427 26.6975 46.7252 26.6609C46.9805 26.6244 47.3453 26.5878 47.6372 26.6975Z" fill="white"/>
<path d="M6.63321 39.8636C5.79416 39.4979 6.2684 36.499 7.25338 36.5721C7.58171 36.5721 7.80059 36.9378 7.80059 37.267C8.23836 37.6693 8.09243 38.4007 7.94651 38.9127C7.83707 39.5344 7.25339 40.2293 6.63321 39.8636Z" fill="#3B4046"/>
<path d="M11.2291 40.1924C10.7549 40.1558 10.3171 39.7535 10.3171 39.2049C9.58748 38.4735 11.6304 37.6324 12.0682 37.3032C12.7613 36.7912 13.9287 37.2666 13.7828 38.2907C13.6733 39.3512 12.1776 40.3752 11.2291 40.1924Z" fill="#3B4046"/>
</svg>
