<svg width="77" height="84" viewBox="0 0 77 84" fill="none" xmlns="http://www.w3.org/2000/svg">
<path d="M0.0239575 59.9358C0.0239575 59.8992 0.0239575 59.8992 0.0239575 59.9358C0.0239575 59.9724 0.0239709 60.009 0.0604516 60.0821C0.133413 60.6307 0.206365 61.2158 0.279327 61.7644C0.42525 62.4958 0.571181 63.1907 0.790065 63.8855C1.04543 64.6535 1.33728 65.385 1.70208 66.1164C1.99393 66.7016 2.32226 67.2501 2.68707 67.7987C3.05187 68.2741 3.41666 68.713 3.85443 69.1153C4.07331 69.3347 4.32868 69.5542 4.58404 69.737C4.94885 69.993 5.35015 70.2124 5.71496 70.5416C5.97032 70.7244 6.22568 70.9439 6.37161 71.2365C6.66345 71.785 6.73642 72.4067 6.69994 73.0285C6.66346 74.6376 6.59048 76.2468 6.40808 77.8194C6.40808 77.7828 6.40809 77.7096 6.44457 77.6731C6.40809 77.9656 6.37161 78.2948 6.33513 78.5874C6.33513 78.6971 6.29864 78.8434 6.29864 78.9531C6.26216 79.5017 6.22568 80.0502 6.1892 80.6354C6.1892 80.7085 6.1892 80.7817 6.1892 80.8182V80.8548C6.1892 81.0742 6.15273 81.2571 6.15273 81.4765C17.4982 82.6834 28.9167 83.3782 40.3351 83.5611C46.8652 83.6708 53.3587 83.6343 59.8888 83.4148C63.9746 83.2685 68.7536 83.3783 72.73 81.8423C72.73 81.2205 72.73 80.5988 72.73 80.0137V80.1599C72.73 78.5142 72.7664 76.8685 72.6205 75.2228C72.6205 75.0765 72.5841 74.9302 72.5476 74.7473C72.5111 74.7108 72.4746 74.6742 72.4746 74.601C72.4746 74.4182 72.4381 74.2353 72.4381 74.0525C72.4381 74.0525 72.4381 74.0525 72.4381 74.0891C72.4016 73.8696 72.4017 73.6502 72.3652 73.4308C72.3652 73.4308 72.3652 73.4308 72.3652 73.4673C72.3287 73.321 72.3287 73.1748 72.2922 73.0285C72.2922 72.9187 72.2557 72.809 72.2557 72.6627C72.2557 72.6627 72.2557 72.6628 72.2557 72.6993C72.2557 72.5896 72.2192 72.5165 72.2192 72.4067C72.1828 72.2605 72.1463 72.1507 72.1098 72.0045C72.1098 71.9313 72.0733 71.8582 72.0733 71.785C72.9489 70.7976 73.9338 68.4936 74.1892 68.0547C74.7729 66.5919 75.1377 65.0558 75.3931 63.4833C75.466 63.2273 75.5025 63.0078 75.5755 62.7518C75.7579 61.9473 75.8673 61.1427 76.0132 60.3015C76.0497 59.9358 76.1227 59.5701 76.1227 59.2044C76.1592 57.9975 76.1227 56.7906 76.1227 55.5838C76.0862 54.7426 76.0497 53.938 76.0132 53.0969C75.9768 52.2557 75.9768 51.378 75.9403 50.5369C75.9038 49.842 75.7943 49.1471 75.7214 48.4523C75.6119 47.6843 75.5025 46.9163 75.3566 46.1483C75.2107 45.5266 75.0283 44.9049 74.9188 44.2831C74.7729 43.6248 74.6635 43.0031 74.554 42.3448C74.4081 41.6134 74.2622 40.9185 74.1162 40.2237C73.9703 39.6019 73.8974 38.9802 73.7514 38.3585C73.6785 37.9928 73.569 37.6636 73.4596 37.2979C73.2407 36.7128 73.0218 36.0911 72.8394 35.5059C72.6205 34.8842 72.4381 34.2259 72.2192 33.5676C72.1463 33.3482 72.0733 33.0922 71.9639 32.8728C68.5712 26.0339 62.6978 20.9138 56.1677 17.3664C54.818 16.6349 53.3587 16.1595 51.863 15.7572C49.7471 15.0989 47.5948 14.5504 45.3695 14.3675C45.1871 14.3309 44.9682 14.3309 44.7858 14.3309C44.9317 14.2212 45.0411 14.0749 45.0776 13.892C45.9167 13.3435 46.7192 12.7583 47.4488 12.1C48.4703 11.2223 49.5283 10.1617 49.8566 8.8086C50.4038 6.6143 48.7622 4.23714 46.6463 3.87142C44.9317 3.68856 43.4725 4.7857 42.3051 5.91943C40.627 7.49201 39.7879 9.64974 39.0583 11.7709C38.2192 8.33316 37.0883 1.93311 33.7321 0.250813C32.1999 -0.297762 30.1935 0.0313788 29.2085 1.45767C27.0926 4.5297 31.2514 10.2715 34.2064 13.5263C34.0969 13.5263 34.024 13.5263 33.9145 13.4898C30.7407 13.2338 27.6399 14.1846 24.7579 15.5012C17.3158 18.4635 11.7708 25.1927 7.9038 32.1779C5.86088 36.1642 4.54757 40.4431 2.90594 44.6488C2.57761 45.49 2.28577 46.3677 1.99392 47.2089C1.99392 47.282 1.99393 47.3917 1.95745 47.4649C1.81153 48.2329 1.55616 49.0009 1.33728 49.7689C1.04543 50.6832 0.935975 51.634 0.753571 52.5483V52.5849C0.753571 52.5849 0.753571 52.5849 0.753571 52.5483C0.644129 53.0603 0.571186 53.6089 0.498224 54.1209C0.461744 54.6329 0.352288 55.1083 0.279327 55.6203V55.6569C0.279327 55.6569 0.279327 55.6569 0.279327 55.6935V55.7301C0.242846 55.9495 0.242842 56.2055 0.206361 56.4249V56.4615C0.206361 56.4615 0.206361 56.4615 0.206361 56.4981V56.5346V56.5712C0.206361 56.6078 0.206361 56.6078 0.206361 56.6444C0.16988 57.1564 0.0969189 57.6684 0.0239575 58.1804C0.0239575 58.6924 0.0239709 59.1678 0.0604516 59.6798C-0.0125098 59.7164 -0.0125232 59.8261 0.0239575 59.9358Z" fill="#FCE67A"/>
<path d="M16.1482 75.5154C13.7405 75.04 11.4057 74.3817 9.10745 73.5771C7.90359 73.1382 6.69973 72.736 5.53235 72.1874C5.53235 72.1508 5.53233 72.0777 5.49585 72.0411C5.49585 71.8948 5.45939 71.7851 5.42291 71.6388C5.38643 71.4925 5.31347 71.3462 5.24051 71.1999C5.24051 71.1634 5.24049 71.1268 5.20401 71.0902C5.16753 71.0171 5.13107 70.9439 5.0581 70.9439C5.02162 70.8708 4.94866 70.7977 4.8757 70.7245C4.83922 70.6879 4.80273 70.6514 4.80273 70.6514C4.83922 70.6514 4.8757 70.6514 4.8757 70.6514C7.57527 71.4925 10.2383 72.2971 12.9744 73.0285C14.1418 73.3577 15.3092 73.6137 16.4766 73.9063C16.8778 74.016 17.0967 74.4183 17.0602 74.8205C16.9873 75.1863 16.659 75.5154 16.2942 75.5154C16.2577 75.552 16.1847 75.5154 16.1482 75.5154Z" fill="white"/>
<path d="M39.6055 38.2125C39.3866 38.1028 39.2042 37.9931 38.9853 37.8833C38.73 37.737 38.5111 37.5908 38.2557 37.4445C38.1828 37.4079 38.1098 37.3713 38.0368 37.2982C37.9274 37.225 37.818 37.1153 37.7085 37.0788C37.3802 36.8228 37.0883 36.4936 36.687 36.457C36.4682 36.457 36.3222 36.6033 36.1398 36.7496C35.8845 36.9325 35.6656 37.1153 35.4102 37.2982C35.0819 37.481 34.7536 37.6273 34.4253 37.7736C33.2214 38.3953 32.0905 39.1633 30.9596 39.9313C30.5948 40.1873 29.9746 40.3702 29.9746 40.9188C29.9746 41.2479 30.23 41.4308 30.5218 41.5405C30.5948 41.6502 30.6677 41.7234 30.7407 41.7965C31.2514 42.3085 31.9446 42.6376 32.5647 43.0399C34.024 43.8811 35.4832 44.832 37.1248 45.2708C37.1613 45.2708 37.2343 45.3074 37.2707 45.3074C38.5111 45.1611 39.4596 44.1737 40.4081 43.4788C41.1012 42.8937 41.9403 42.4548 42.6334 41.8696C42.9617 41.7233 43.2536 41.5405 43.436 41.2114C43.9467 40.1873 40.3716 38.6879 39.6055 38.2125Z" fill="#FFBD52"/>
<path d="M21.9858 39.8945C20.1617 39.3094 20.4171 35.2134 22.533 35.2134C24.3935 35.25 24.8313 37.3711 24.2111 38.7974C23.8463 39.7483 22.9343 40.1506 21.9858 39.8945Z" fill="#3B4046"/>
<path d="M50.7319 39.0169C48.8349 37.8832 50.5859 33.4214 52.7383 35.1037C53.3585 35.762 53.6138 36.8957 53.1396 37.7369C52.9207 38.9437 51.8263 39.602 50.7319 39.0169Z" fill="#3B4046"/>
</svg>
