<svg width="24" height="24" viewBox="0 0 24 24" fill="none" xmlns="http://www.w3.org/2000/svg">
<g clip-path="url(#clip0_2752_6653)">
<path d="M20.0833 16.381C19.369 16.381 18.75 16.381 18.0476 16.381C18.0476 17.4524 18.0476 18.4881 18.0476 19.5833C13.369 19.5833 8.76188 19.5833 4.09521 19.5833C4.0833 19.4167 4.05949 19.25 4.05949 19.0833C4.05949 16.6071 4.04759 14.1191 4.0714 11.6429C4.0714 11.3929 4.16664 11.0833 4.34521 10.9167C6.48806 8.70238 8.66664 6.52381 10.8452 4.34524C10.8928 4.29762 10.9643 4.25 11.0476 4.17857C11.1547 4.27381 11.2619 4.35714 11.3571 4.45238C13.4762 6.58333 15.6071 8.70238 17.7143 10.8214C17.9047 11.0119 18.0238 11.2976 18.2024 11.5833C18.75 11.5833 19.3809 11.5833 20.0476 11.5833C20.1785 10.881 20.0357 10.2619 19.5476 9.77381C17.1785 7.36905 14.8095 4.97619 12.4166 2.59524C11.6071 1.78572 10.4524 1.80953 9.64283 2.61905C7.27378 4.97619 4.91664 7.33334 2.60711 9.7381C2.27378 10.0833 2.03568 10.6786 2.03568 11.1667C1.98806 13.9881 1.99997 16.8095 2.01188 19.619C2.01188 20.881 2.79759 21.6548 4.0714 21.6667C8.71425 21.6786 13.3571 21.6786 18 21.6667C19.3095 21.6667 20.0714 20.8929 20.0833 19.5952C20.0833 18.5476 20.0833 17.5 20.0833 16.381Z" fill="#BDD3FF"/>
<path d="M13.3453 12.8095C13.7619 12.3929 14.1905 11.9881 14.6072 11.5714C15.0834 11.0833 15.0715 10.7976 14.5953 10.3095C14.0834 9.79762 13.75 9.7619 13.2858 10.2381C12.2262 11.2857 11.1905 12.3571 10.131 13.4048C9.73813 13.7976 9.73813 14.1548 10.1191 14.5357C11.1905 15.6071 12.25 16.6786 13.3215 17.7381C13.7738 18.1786 14.0953 18.1429 14.5834 17.631C15.0477 17.1548 15.0834 16.8452 14.6548 16.4048C14.2262 15.9643 13.7738 15.5476 13.381 14.9643C13.5834 14.9643 13.7858 14.9643 13.9762 14.9643C16.3334 14.9643 18.7024 14.9643 21.0596 14.9643C21.8453 14.9643 21.9881 14.8095 21.9881 13.9524C22 13.1548 21.8096 12.9524 21.0477 12.9524C18.5119 12.9524 15.9643 12.9524 13.4286 12.9524C13.4048 12.9048 13.3691 12.8571 13.3453 12.8095Z" fill="#BDD3FF"/>
</g>
<defs>
<clipPath id="clip0_2752_6653">
<rect width="20" height="19.6786" fill="white" transform="matrix(-1 0 0 1 22 2)"/>
</clipPath>
</defs>
</svg>
