<svg width="36" height="37" viewBox="0 0 36 37" fill="none" xmlns="http://www.w3.org/2000/svg">
<circle cx="18" cy="18.1396" r="17.5" fill="#F9F9F9" stroke="#EBEBEB"/>
<path d="M21.9591 8.13965H14.305C12.6343 8.14443 11.0333 8.81024 9.85197 9.99162C8.67059 11.173 8.00478 12.7739 8 14.4446V22.0988C8.00478 23.7695 8.67059 25.3704 9.85197 26.5518C11.0333 27.7332 12.6343 28.399 14.305 28.4038H21.9591C23.6299 28.399 25.2308 27.7332 26.4122 26.5518C27.5935 25.3704 28.2593 23.7695 28.2641 22.0988V14.4446C28.2593 12.7739 27.5935 11.173 26.4122 9.99162C25.2308 8.81024 23.6299 8.14443 21.9591 8.13965ZM26.6214 21.4792C26.6173 22.8787 26.0595 24.2198 25.0698 25.2095C24.0802 26.1991 22.7391 26.757 21.3395 26.7611H14.9246C13.525 26.757 12.184 26.1991 11.1943 25.2095C10.2046 24.2198 9.64682 22.8787 9.64268 21.4792V15.0643C9.64682 13.6647 10.2046 12.3236 11.1943 11.3339C12.184 10.3443 13.525 9.78647 14.9246 9.78233H21.3395C22.7391 9.78647 24.0802 10.3443 25.0698 11.3339C26.0595 12.3236 26.6173 13.6647 26.6214 15.0643V21.4792Z" fill="#2F80ED"/>
<path d="M18.1292 13.0156C16.7375 13.0204 15.4041 13.5754 14.42 14.5595C13.436 15.5435 12.881 16.8769 12.8762 18.2686C12.8794 19.6614 13.4336 20.9964 14.4178 21.982C15.4021 22.9676 16.7363 23.5237 18.1292 23.5288C19.5232 23.5252 20.8591 22.9699 21.8448 21.9842C22.8305 20.9985 23.3858 19.6626 23.3894 18.2686C23.3842 16.8757 22.8282 15.5415 21.8426 14.5573C20.857 13.573 19.522 13.0188 18.1292 13.0156ZM21.6899 18.2686C21.6877 19.2122 21.3118 20.1166 20.6445 20.7839C19.9772 21.4512 19.0728 21.8271 18.1292 21.8293C17.1866 21.8255 16.2839 21.4489 15.6181 20.7817C14.9523 20.1146 14.5776 19.2111 14.5757 18.2686C14.5792 17.3272 14.9547 16.4254 15.6203 15.7597C16.286 15.0941 17.1878 14.7186 18.1292 14.7151C19.0717 14.717 19.9752 15.0917 20.6423 15.7575C21.3095 16.4233 21.6861 17.326 21.6899 18.2686Z" fill="#2F80ED"/>
<path d="M23.8446 11.4502C23.5699 11.4502 23.3014 11.5317 23.0731 11.6844C22.8447 11.8371 22.6669 12.0542 22.562 12.308C22.4571 12.5619 22.4299 12.8412 22.4838 13.1106C22.5378 13.3799 22.6704 13.6272 22.865 13.8211C23.0596 14.015 23.3073 14.1468 23.5768 14.1998C23.8464 14.2528 24.1256 14.2246 24.3791 14.1188C24.6326 14.013 24.849 13.8344 25.0009 13.6055C25.1528 13.3767 25.2334 13.1079 25.2324 12.8332C25.2315 12.4659 25.0848 12.1139 24.8246 11.8546C24.5644 11.5953 24.2119 11.4499 23.8446 11.4502Z" fill="#2F80ED"/>
</svg>
