<svg width="36" height="37" viewBox="0 0 36 37" fill="none" xmlns="http://www.w3.org/2000/svg">
<circle cx="18" cy="18.1396" r="17.5" fill="#F9F9F9" stroke="#EBEBEB"/>
<mask id="path-2-outside-1_1_943" maskUnits="userSpaceOnUse" x="7" y="8.13965" width="22" height="20" fill="black">
<rect fill="white" x="7" y="8.13965" width="22" height="20"/>
<path fill-rule="evenodd" clip-rule="evenodd" d="M18 24.1396C22.9706 24.1396 27 21.0056 27 17.1396C27 13.2737 22.9706 10.1396 18 10.1396C13.0294 10.1396 9 13.2737 9 17.1396C9 19.5746 10.5985 21.7192 13.0239 22.9733L12 26.6396L16.0903 23.9817C16.7058 24.0852 17.3447 24.1396 18 24.1396Z"/>
</mask>
<path d="M13.0239 22.9733L14.4686 23.3767C14.6598 22.6921 14.3442 21.9673 13.7128 21.6408L13.0239 22.9733ZM12 26.6396L10.5553 26.2362C10.3874 26.8372 10.6092 27.4793 11.1121 27.8486C11.615 28.218 12.2941 28.2374 12.8173 27.8974L12 26.6396ZM16.0903 23.9817L16.3389 22.5025C15.9684 22.4402 15.588 22.5193 15.273 22.724L16.0903 23.9817ZM25.5 17.1396C25.5 19.8482 22.5148 22.6396 18 22.6396V25.6396C23.4263 25.6396 28.5 22.1631 28.5 17.1396H25.5ZM18 11.6396C22.5148 11.6396 25.5 14.4311 25.5 17.1396H28.5C28.5 12.1162 23.4263 8.63965 18 8.63965V11.6396ZM10.5 17.1396C10.5 14.4311 13.4852 11.6396 18 11.6396V8.63965C12.5737 8.63965 7.5 12.1162 7.5 17.1396H10.5ZM13.7128 21.6408C11.6385 20.5683 10.5 18.8655 10.5 17.1396H7.5C7.5 20.2838 9.55848 22.8701 12.3349 24.3057L13.7128 21.6408ZM13.4447 27.0431L14.4686 23.3767L11.5791 22.5698L10.5553 26.2362L13.4447 27.0431ZM15.273 22.724L11.1827 25.3819L12.8173 27.8974L16.9076 25.2395L15.273 22.724ZM18 22.6396C17.4278 22.6396 16.872 22.5921 16.3389 22.5025L15.8417 25.461C16.5396 25.5783 17.2617 25.6396 18 25.6396V22.6396Z" fill="#2F80ED" mask="url(#path-2-outside-1_1_943)"/>
</svg>
