<svg width="14" height="15" viewBox="0 0 14 15" fill="none" xmlns="http://www.w3.org/2000/svg">
<path d="M7.00004 2.41668C7.96671 2.41668 8.75004 3.20001 8.75004 4.16668C8.75004 5.13334 7.96671 5.91668 7.00004 5.91668C6.03337 5.91668 5.25004 5.13334 5.25004 4.16668C5.25004 3.20001 6.03337 2.41668 7.00004 2.41668ZM7.00004 9.91667C9.47504 9.91667 12.0834 11.1333 12.0834 11.6667V12.5833H1.91671V11.6667C1.91671 11.1333 4.52504 9.91667 7.00004 9.91667ZM7.00004 0.833344C5.15837 0.833344 3.66671 2.32501 3.66671 4.16668C3.66671 6.00834 5.15837 7.50001 7.00004 7.50001C8.84171 7.50001 10.3334 6.00834 10.3334 4.16668C10.3334 2.32501 8.84171 0.833344 7.00004 0.833344ZM7.00004 8.33334C4.77504 8.33334 0.333374 9.45001 0.333374 11.6667V14.1667H13.6667V11.6667C13.6667 9.45001 9.22504 8.33334 7.00004 8.33334Z" fill="#97A1AE"/>
</svg>
